<mxfile host="Electron" agent="Mozilla/5.0 (Windows NT 10.0; Win64; x64) AppleWebKit/537.36 (KHTML, like Gecko) draw.io/25.0.2 Chrome/128.0.6613.186 Electron/32.2.5 Safari/537.36" version="25.0.2">
  <diagram id="C5RBs43oDa-KdzZeNtuy" name="Page-1">
    <mxGraphModel dx="2518" dy="3370" grid="1" gridSize="10" guides="1" tooltips="1" connect="1" arrows="1" fold="1" page="1" pageScale="1" pageWidth="1100" pageHeight="850" math="0" shadow="0">
      <root>
        <mxCell id="WIyWlLk6GJQsqaUBKTNV-0" />
        <mxCell id="WIyWlLk6GJQsqaUBKTNV-1" parent="WIyWlLk6GJQsqaUBKTNV-0" />
        <mxCell id="tGhq1vd1xCX6ENyTumZ_-237" value="" style="endArrow=none;html=1;rounded=0;strokeColor=default;align=center;verticalAlign=middle;fontFamily=Helvetica;fontSize=11;fontColor=default;labelBackgroundColor=default;" parent="WIyWlLk6GJQsqaUBKTNV-1" source="Jjo37aYTDrCIMehfR2HO-1" target="tGhq1vd1xCX6ENyTumZ_-230" edge="1">
          <mxGeometry relative="1" as="geometry">
            <mxPoint x="480" y="-1680" as="sourcePoint" />
            <mxPoint x="1380" y="-678" as="targetPoint" />
          </mxGeometry>
        </mxCell>
        <mxCell id="tGhq1vd1xCX6ENyTumZ_-238" value="1" style="resizable=0;html=1;whiteSpace=wrap;align=left;verticalAlign=bottom;fontFamily=Helvetica;fontSize=11;fontColor=default;labelBackgroundColor=default;" parent="tGhq1vd1xCX6ENyTumZ_-237" connectable="0" vertex="1">
          <mxGeometry x="-1" relative="1" as="geometry">
            <mxPoint x="-16" y="20" as="offset" />
          </mxGeometry>
        </mxCell>
        <mxCell id="tGhq1vd1xCX6ENyTumZ_-239" value="*" style="resizable=0;html=1;whiteSpace=wrap;align=center;verticalAlign=bottom;fontFamily=Helvetica;fontSize=16;fontColor=default;labelBackgroundColor=none;spacing=2;fontStyle=1;" parent="tGhq1vd1xCX6ENyTumZ_-237" connectable="0" vertex="1">
          <mxGeometry x="1" relative="1" as="geometry">
            <mxPoint x="-9" y="6" as="offset" />
          </mxGeometry>
        </mxCell>
        <mxCell id="tGhq1vd1xCX6ENyTumZ_-230" value="ventas" style="swimlane;fontStyle=0;align=center;verticalAlign=top;childLayout=stackLayout;horizontal=1;startSize=26;horizontalStack=0;resizeParent=1;resizeLast=0;collapsible=1;marginBottom=0;rounded=0;shadow=0;strokeWidth=1;" parent="WIyWlLk6GJQsqaUBKTNV-1" vertex="1">
          <mxGeometry x="390" y="-1590" width="160" height="190" as="geometry">
            <mxRectangle x="130" y="380" width="160" height="26" as="alternateBounds" />
          </mxGeometry>
        </mxCell>
        <mxCell id="tGhq1vd1xCX6ENyTumZ_-231" value="id_venta" style="text;align=left;verticalAlign=top;spacingLeft=4;spacingRight=4;overflow=hidden;rotatable=0;points=[[0,0.5],[1,0.5]];portConstraint=eastwest;" parent="tGhq1vd1xCX6ENyTumZ_-230" vertex="1">
          <mxGeometry y="26" width="160" height="26" as="geometry" />
        </mxCell>
        <mxCell id="tGhq1vd1xCX6ENyTumZ_-233" value="codigo_venta" style="text;align=left;verticalAlign=top;spacingLeft=4;spacingRight=4;overflow=hidden;rotatable=0;points=[[0,0.5],[1,0.5]];portConstraint=eastwest;rounded=0;shadow=0;html=0;" parent="tGhq1vd1xCX6ENyTumZ_-230" vertex="1">
          <mxGeometry y="52" width="160" height="28" as="geometry" />
        </mxCell>
        <mxCell id="tGhq1vd1xCX6ENyTumZ_-236" value="monto_total_venta" style="text;align=left;verticalAlign=top;spacingLeft=4;spacingRight=4;overflow=hidden;rotatable=0;points=[[0,0.5],[1,0.5]];portConstraint=eastwest;rounded=0;shadow=0;html=0;" parent="tGhq1vd1xCX6ENyTumZ_-230" vertex="1">
          <mxGeometry y="80" width="160" height="28" as="geometry" />
        </mxCell>
        <mxCell id="tGhq1vd1xCX6ENyTumZ_-234" value="metodo_pago_venta" style="text;align=left;verticalAlign=top;spacingLeft=4;spacingRight=4;overflow=hidden;rotatable=0;points=[[0,0.5],[1,0.5]];portConstraint=eastwest;rounded=0;shadow=0;html=0;" parent="tGhq1vd1xCX6ENyTumZ_-230" vertex="1">
          <mxGeometry y="108" width="160" height="28" as="geometry" />
        </mxCell>
        <mxCell id="thJgkG1LX_lcmpeD1mFp-10" value="fecha_creacion" style="text;align=left;verticalAlign=top;spacingLeft=4;spacingRight=4;overflow=hidden;rotatable=0;points=[[0,0.5],[1,0.5]];portConstraint=eastwest;rounded=0;shadow=0;html=0;" parent="tGhq1vd1xCX6ENyTumZ_-230" vertex="1">
          <mxGeometry y="136" width="160" height="26" as="geometry" />
        </mxCell>
        <mxCell id="thJgkG1LX_lcmpeD1mFp-11" value="fecha_actualizacion" style="text;align=left;verticalAlign=top;spacingLeft=4;spacingRight=4;overflow=hidden;rotatable=0;points=[[0,0.5],[1,0.5]];portConstraint=eastwest;rounded=0;shadow=0;html=0;" parent="tGhq1vd1xCX6ENyTumZ_-230" vertex="1">
          <mxGeometry y="162" width="160" height="28" as="geometry" />
        </mxCell>
        <mxCell id="tGhq1vd1xCX6ENyTumZ_-240" value="" style="endArrow=none;html=1;rounded=0;strokeColor=default;align=center;verticalAlign=middle;fontFamily=Helvetica;fontSize=11;fontColor=default;labelBackgroundColor=default;edgeStyle=orthogonalEdgeStyle;" parent="WIyWlLk6GJQsqaUBKTNV-1" source="tGhq1vd1xCX6ENyTumZ_-94" target="tGhq1vd1xCX6ENyTumZ_-230" edge="1">
          <mxGeometry relative="1" as="geometry">
            <mxPoint x="1590" y="-1062" as="sourcePoint" />
            <mxPoint x="1720" y="-1070" as="targetPoint" />
            <Array as="points">
              <mxPoint x="350" y="-1190" />
              <mxPoint x="350" y="-1420" />
            </Array>
          </mxGeometry>
        </mxCell>
        <mxCell id="tGhq1vd1xCX6ENyTumZ_-241" value="*" style="resizable=0;html=1;whiteSpace=wrap;align=left;verticalAlign=bottom;fontFamily=Helvetica;fontSize=16;fontColor=default;labelBackgroundColor=none;fontStyle=1" parent="tGhq1vd1xCX6ENyTumZ_-240" connectable="0" vertex="1">
          <mxGeometry x="-1" relative="1" as="geometry">
            <mxPoint x="10" as="offset" />
          </mxGeometry>
        </mxCell>
        <mxCell id="tGhq1vd1xCX6ENyTumZ_-242" value="*" style="resizable=0;html=1;whiteSpace=wrap;align=right;verticalAlign=bottom;fontFamily=Helvetica;fontSize=16;fontColor=default;labelBackgroundColor=none;fontStyle=1" parent="tGhq1vd1xCX6ENyTumZ_-240" connectable="0" vertex="1">
          <mxGeometry x="1" relative="1" as="geometry">
            <mxPoint x="-20" as="offset" />
          </mxGeometry>
        </mxCell>
        <mxCell id="zkfFHV4jXpPFQw0GAbJ--6" value="usuarios" style="swimlane;fontStyle=0;align=center;verticalAlign=top;childLayout=stackLayout;horizontal=1;startSize=26;horizontalStack=0;resizeParent=1;resizeLast=0;collapsible=1;marginBottom=0;rounded=0;shadow=0;strokeWidth=1;" parent="WIyWlLk6GJQsqaUBKTNV-1" vertex="1">
          <mxGeometry x="75" y="-2140" width="160" height="360" as="geometry">
            <mxRectangle x="130" y="380" width="160" height="26" as="alternateBounds" />
          </mxGeometry>
        </mxCell>
        <mxCell id="zkfFHV4jXpPFQw0GAbJ--7" value="id_usuario" style="text;align=left;verticalAlign=top;spacingLeft=4;spacingRight=4;overflow=hidden;rotatable=0;points=[[0,0.5],[1,0.5]];portConstraint=eastwest;" parent="zkfFHV4jXpPFQw0GAbJ--6" vertex="1">
          <mxGeometry y="26" width="160" height="26" as="geometry" />
        </mxCell>
        <mxCell id="QhkTqGAl0PFYy6q8hVvx-43" value="id_rol" style="text;align=left;verticalAlign=top;spacingLeft=4;spacingRight=4;overflow=hidden;rotatable=0;points=[[0,0.5],[1,0.5]];portConstraint=eastwest;rounded=0;shadow=0;html=0;" parent="zkfFHV4jXpPFQw0GAbJ--6" vertex="1">
          <mxGeometry y="52" width="160" height="28" as="geometry" />
        </mxCell>
        <mxCell id="icrbJqTL_05nz_oc38vD-0" value="nombre_usuario" style="text;align=left;verticalAlign=top;spacingLeft=4;spacingRight=4;overflow=hidden;rotatable=0;points=[[0,0.5],[1,0.5]];portConstraint=eastwest;rounded=0;shadow=0;html=0;" parent="zkfFHV4jXpPFQw0GAbJ--6" vertex="1">
          <mxGeometry y="80" width="160" height="28" as="geometry" />
        </mxCell>
        <mxCell id="QhkTqGAl0PFYy6q8hVvx-40" value="apellido_usuario" style="text;align=left;verticalAlign=top;spacingLeft=4;spacingRight=4;overflow=hidden;rotatable=0;points=[[0,0.5],[1,0.5]];portConstraint=eastwest;rounded=0;shadow=0;html=0;" parent="zkfFHV4jXpPFQw0GAbJ--6" vertex="1">
          <mxGeometry y="108" width="160" height="28" as="geometry" />
        </mxCell>
        <mxCell id="d0Ygmhq4uaecyZVwAwtQ-0" value="apellido_materno_usuario" style="text;align=left;verticalAlign=top;spacingLeft=4;spacingRight=4;overflow=hidden;rotatable=0;points=[[0,0.5],[1,0.5]];portConstraint=eastwest;rounded=0;shadow=0;html=0;" vertex="1" parent="zkfFHV4jXpPFQw0GAbJ--6">
          <mxGeometry y="136" width="160" height="28" as="geometry" />
        </mxCell>
        <mxCell id="zkfFHV4jXpPFQw0GAbJ--8" value="telefono_usuario" style="text;align=left;verticalAlign=top;spacingLeft=4;spacingRight=4;overflow=hidden;rotatable=0;points=[[0,0.5],[1,0.5]];portConstraint=eastwest;rounded=0;shadow=0;html=0;" parent="zkfFHV4jXpPFQw0GAbJ--6" vertex="1">
          <mxGeometry y="164" width="160" height="28" as="geometry" />
        </mxCell>
        <mxCell id="QhkTqGAl0PFYy6q8hVvx-41" value="foto_usuario" style="text;align=left;verticalAlign=top;spacingLeft=4;spacingRight=4;overflow=hidden;rotatable=0;points=[[0,0.5],[1,0.5]];portConstraint=eastwest;rounded=0;shadow=0;html=0;" parent="zkfFHV4jXpPFQw0GAbJ--6" vertex="1">
          <mxGeometry y="192" width="160" height="28" as="geometry" />
        </mxCell>
        <mxCell id="icrbJqTL_05nz_oc38vD-34" value="email_usuario" style="text;align=left;verticalAlign=top;spacingLeft=4;spacingRight=4;overflow=hidden;rotatable=0;points=[[0,0.5],[1,0.5]];portConstraint=eastwest;rounded=0;shadow=0;html=0;" parent="zkfFHV4jXpPFQw0GAbJ--6" vertex="1">
          <mxGeometry y="220" width="160" height="28" as="geometry" />
        </mxCell>
        <mxCell id="QhkTqGAl0PFYy6q8hVvx-42" value="password_usuario" style="text;align=left;verticalAlign=top;spacingLeft=4;spacingRight=4;overflow=hidden;rotatable=0;points=[[0,0.5],[1,0.5]];portConstraint=eastwest;rounded=0;shadow=0;html=0;" parent="zkfFHV4jXpPFQw0GAbJ--6" vertex="1">
          <mxGeometry y="248" width="160" height="28" as="geometry" />
        </mxCell>
        <mxCell id="icrbJqTL_05nz_oc38vD-11" value="estado_usuario" style="text;align=left;verticalAlign=top;spacingLeft=4;spacingRight=4;overflow=hidden;rotatable=0;points=[[0,0.5],[1,0.5]];portConstraint=eastwest;rounded=0;shadow=0;html=0;" parent="zkfFHV4jXpPFQw0GAbJ--6" vertex="1">
          <mxGeometry y="276" width="160" height="28" as="geometry" />
        </mxCell>
        <mxCell id="thJgkG1LX_lcmpeD1mFp-2" value="fecha_actualizacion" style="text;align=left;verticalAlign=top;spacingLeft=4;spacingRight=4;overflow=hidden;rotatable=0;points=[[0,0.5],[1,0.5]];portConstraint=eastwest;rounded=0;shadow=0;html=0;" parent="zkfFHV4jXpPFQw0GAbJ--6" vertex="1">
          <mxGeometry y="304" width="160" height="28" as="geometry" />
        </mxCell>
        <mxCell id="thJgkG1LX_lcmpeD1mFp-7" value="fecha_creacion" style="text;align=left;verticalAlign=top;spacingLeft=4;spacingRight=4;overflow=hidden;rotatable=0;points=[[0,0.5],[1,0.5]];portConstraint=eastwest;rounded=0;shadow=0;html=0;" parent="zkfFHV4jXpPFQw0GAbJ--6" vertex="1">
          <mxGeometry y="332" width="160" height="26" as="geometry" />
        </mxCell>
        <mxCell id="tGhq1vd1xCX6ENyTumZ_-64" value="compras" style="swimlane;fontStyle=0;align=center;verticalAlign=top;childLayout=stackLayout;horizontal=1;startSize=26;horizontalStack=0;resizeParent=1;resizeLast=0;collapsible=1;marginBottom=0;rounded=0;shadow=0;strokeWidth=1;" parent="WIyWlLk6GJQsqaUBKTNV-1" vertex="1">
          <mxGeometry x="-220" y="-1724" width="160" height="218" as="geometry">
            <mxRectangle x="130" y="380" width="160" height="26" as="alternateBounds" />
          </mxGeometry>
        </mxCell>
        <mxCell id="tGhq1vd1xCX6ENyTumZ_-65" value="id_compra" style="text;align=left;verticalAlign=top;spacingLeft=4;spacingRight=4;overflow=hidden;rotatable=0;points=[[0,0.5],[1,0.5]];portConstraint=eastwest;" parent="tGhq1vd1xCX6ENyTumZ_-64" vertex="1">
          <mxGeometry y="26" width="160" height="26" as="geometry" />
        </mxCell>
        <mxCell id="QhkTqGAl0PFYy6q8hVvx-36" value="codigo_compra" style="text;align=left;verticalAlign=top;spacingLeft=4;spacingRight=4;overflow=hidden;rotatable=0;points=[[0,0.5],[1,0.5]];portConstraint=eastwest;rounded=0;shadow=0;html=0;" parent="tGhq1vd1xCX6ENyTumZ_-64" vertex="1">
          <mxGeometry y="52" width="160" height="28" as="geometry" />
        </mxCell>
        <mxCell id="QhkTqGAl0PFYy6q8hVvx-37" value="monto_total_compra" style="text;align=left;verticalAlign=top;spacingLeft=4;spacingRight=4;overflow=hidden;rotatable=0;points=[[0,0.5],[1,0.5]];portConstraint=eastwest;rounded=0;shadow=0;html=0;" parent="tGhq1vd1xCX6ENyTumZ_-64" vertex="1">
          <mxGeometry y="80" width="160" height="28" as="geometry" />
        </mxCell>
        <mxCell id="tGhq1vd1xCX6ENyTumZ_-66" value="fecha_compra" style="text;align=left;verticalAlign=top;spacingLeft=4;spacingRight=4;overflow=hidden;rotatable=0;points=[[0,0.5],[1,0.5]];portConstraint=eastwest;rounded=0;shadow=0;html=0;" parent="tGhq1vd1xCX6ENyTumZ_-64" vertex="1">
          <mxGeometry y="108" width="160" height="28" as="geometry" />
        </mxCell>
        <mxCell id="thJgkG1LX_lcmpeD1mFp-17" value="fecha_actualizacion" style="text;align=left;verticalAlign=top;spacingLeft=4;spacingRight=4;overflow=hidden;rotatable=0;points=[[0,0.5],[1,0.5]];portConstraint=eastwest;rounded=0;shadow=0;html=0;" parent="tGhq1vd1xCX6ENyTumZ_-64" vertex="1">
          <mxGeometry y="136" width="160" height="28" as="geometry" />
        </mxCell>
        <mxCell id="thJgkG1LX_lcmpeD1mFp-16" value="fecha_creacion" style="text;align=left;verticalAlign=top;spacingLeft=4;spacingRight=4;overflow=hidden;rotatable=0;points=[[0,0.5],[1,0.5]];portConstraint=eastwest;rounded=0;shadow=0;html=0;" parent="tGhq1vd1xCX6ENyTumZ_-64" vertex="1">
          <mxGeometry y="164" width="160" height="26" as="geometry" />
        </mxCell>
        <mxCell id="tGhq1vd1xCX6ENyTumZ_-87" value="detalles_compras" style="swimlane;fontStyle=0;align=center;verticalAlign=top;childLayout=stackLayout;horizontal=1;startSize=26;horizontalStack=0;resizeParent=1;resizeLast=0;collapsible=1;marginBottom=0;rounded=0;shadow=0;strokeWidth=1;" parent="WIyWlLk6GJQsqaUBKTNV-1" vertex="1">
          <mxGeometry x="-320" y="-1488" width="180" height="148" as="geometry">
            <mxRectangle x="130" y="380" width="160" height="26" as="alternateBounds" />
          </mxGeometry>
        </mxCell>
        <mxCell id="tGhq1vd1xCX6ENyTumZ_-89" value="cantidad_detalleCompra" style="text;align=left;verticalAlign=top;spacingLeft=4;spacingRight=4;overflow=hidden;rotatable=0;points=[[0,0.5],[1,0.5]];portConstraint=eastwest;rounded=0;shadow=0;html=0;" parent="tGhq1vd1xCX6ENyTumZ_-87" vertex="1">
          <mxGeometry y="26" width="180" height="28" as="geometry" />
        </mxCell>
        <mxCell id="tGhq1vd1xCX6ENyTumZ_-90" value="precio_unitario" style="text;align=left;verticalAlign=top;spacingLeft=4;spacingRight=4;overflow=hidden;rotatable=0;points=[[0,0.5],[1,0.5]];portConstraint=eastwest;rounded=0;shadow=0;html=0;" parent="tGhq1vd1xCX6ENyTumZ_-87" vertex="1">
          <mxGeometry y="54" width="180" height="28" as="geometry" />
        </mxCell>
        <mxCell id="thJgkG1LX_lcmpeD1mFp-19" value="fecha_actualizacion" style="text;align=left;verticalAlign=top;spacingLeft=4;spacingRight=4;overflow=hidden;rotatable=0;points=[[0,0.5],[1,0.5]];portConstraint=eastwest;rounded=0;shadow=0;html=0;" parent="tGhq1vd1xCX6ENyTumZ_-87" vertex="1">
          <mxGeometry y="82" width="180" height="28" as="geometry" />
        </mxCell>
        <mxCell id="thJgkG1LX_lcmpeD1mFp-18" value="fecha_creacion" style="text;align=left;verticalAlign=top;spacingLeft=4;spacingRight=4;overflow=hidden;rotatable=0;points=[[0,0.5],[1,0.5]];portConstraint=eastwest;rounded=0;shadow=0;html=0;" parent="tGhq1vd1xCX6ENyTumZ_-87" vertex="1">
          <mxGeometry y="110" width="180" height="26" as="geometry" />
        </mxCell>
        <mxCell id="tGhq1vd1xCX6ENyTumZ_-93" value="" style="endArrow=none;dashed=1;html=1;rounded=0;strokeColor=default;align=center;verticalAlign=middle;fontFamily=Helvetica;fontSize=11;fontColor=default;labelBackgroundColor=default;" parent="WIyWlLk6GJQsqaUBKTNV-1" target="tGhq1vd1xCX6ENyTumZ_-87" edge="1">
          <mxGeometry width="50" height="50" relative="1" as="geometry">
            <mxPoint x="-50" y="-1410" as="sourcePoint" />
            <mxPoint x="1450" y="-1630" as="targetPoint" />
          </mxGeometry>
        </mxCell>
        <mxCell id="tGhq1vd1xCX6ENyTumZ_-94" value="productos" style="swimlane;fontStyle=0;align=center;verticalAlign=top;childLayout=stackLayout;horizontal=1;startSize=26;horizontalStack=0;resizeParent=1;resizeLast=0;collapsible=1;marginBottom=0;rounded=0;shadow=0;strokeWidth=1;" parent="WIyWlLk6GJQsqaUBKTNV-1" vertex="1">
          <mxGeometry x="60" y="-1420" width="190" height="414" as="geometry">
            <mxRectangle x="620" y="-440" width="160" height="26" as="alternateBounds" />
          </mxGeometry>
        </mxCell>
        <mxCell id="tGhq1vd1xCX6ENyTumZ_-95" value="id_producto" style="text;align=left;verticalAlign=top;spacingLeft=4;spacingRight=4;overflow=hidden;rotatable=0;points=[[0,0.5],[1,0.5]];portConstraint=eastwest;" parent="tGhq1vd1xCX6ENyTumZ_-94" vertex="1">
          <mxGeometry y="26" width="190" height="22" as="geometry" />
        </mxCell>
        <mxCell id="_dKKWEHPCUcyKfsjPXB_-25" value="id_marca" style="text;align=left;verticalAlign=top;spacingLeft=4;spacingRight=4;overflow=hidden;rotatable=0;points=[[0,0.5],[1,0.5]];portConstraint=eastwest;" parent="tGhq1vd1xCX6ENyTumZ_-94" vertex="1">
          <mxGeometry y="48" width="190" height="26" as="geometry" />
        </mxCell>
        <mxCell id="_dKKWEHPCUcyKfsjPXB_-53" value="id_categoria" style="text;align=left;verticalAlign=top;spacingLeft=4;spacingRight=4;overflow=hidden;rotatable=0;points=[[0,0.5],[1,0.5]];portConstraint=eastwest;" parent="tGhq1vd1xCX6ENyTumZ_-94" vertex="1">
          <mxGeometry y="74" width="190" height="26" as="geometry" />
        </mxCell>
        <mxCell id="_dKKWEHPCUcyKfsjPXB_-65" value="id_modelo" style="text;align=left;verticalAlign=top;spacingLeft=4;spacingRight=4;overflow=hidden;rotatable=0;points=[[0,0.5],[1,0.5]];portConstraint=eastwest;" parent="tGhq1vd1xCX6ENyTumZ_-94" vertex="1">
          <mxGeometry y="100" width="190" height="26" as="geometry" />
        </mxCell>
        <mxCell id="_dKKWEHPCUcyKfsjPXB_-63" value="id_diseño" style="text;align=left;verticalAlign=top;spacingLeft=4;spacingRight=4;overflow=hidden;rotatable=0;points=[[0,0.5],[1,0.5]];portConstraint=eastwest;" parent="tGhq1vd1xCX6ENyTumZ_-94" vertex="1">
          <mxGeometry y="126" width="190" height="26" as="geometry" />
        </mxCell>
        <mxCell id="QhkTqGAl0PFYy6q8hVvx-24" value="nombre_producto" style="text;align=left;verticalAlign=top;spacingLeft=4;spacingRight=4;overflow=hidden;rotatable=0;points=[[0,0.5],[1,0.5]];portConstraint=eastwest;" parent="tGhq1vd1xCX6ENyTumZ_-94" vertex="1">
          <mxGeometry y="152" width="190" height="26" as="geometry" />
        </mxCell>
        <mxCell id="QhkTqGAl0PFYy6q8hVvx-25" value="descripcion_producto" style="text;align=left;verticalAlign=top;spacingLeft=4;spacingRight=4;overflow=hidden;rotatable=0;points=[[0,0.5],[1,0.5]];portConstraint=eastwest;" parent="tGhq1vd1xCX6ENyTumZ_-94" vertex="1">
          <mxGeometry y="178" width="190" height="26" as="geometry" />
        </mxCell>
        <mxCell id="QhkTqGAl0PFYy6q8hVvx-29" value="img_producto" style="text;align=left;verticalAlign=top;spacingLeft=4;spacingRight=4;overflow=hidden;rotatable=0;points=[[0,0.5],[1,0.5]];portConstraint=eastwest;" parent="tGhq1vd1xCX6ENyTumZ_-94" vertex="1">
          <mxGeometry y="204" width="190" height="26" as="geometry" />
        </mxCell>
        <mxCell id="QhkTqGAl0PFYy6q8hVvx-30" value="stock_producto" style="text;align=left;verticalAlign=top;spacingLeft=4;spacingRight=4;overflow=hidden;rotatable=0;points=[[0,0.5],[1,0.5]];portConstraint=eastwest;" parent="tGhq1vd1xCX6ENyTumZ_-94" vertex="1">
          <mxGeometry y="230" width="190" height="26" as="geometry" />
        </mxCell>
        <mxCell id="QhkTqGAl0PFYy6q8hVvx-31" value="precio_producto" style="text;align=left;verticalAlign=top;spacingLeft=4;spacingRight=4;overflow=hidden;rotatable=0;points=[[0,0.5],[1,0.5]];portConstraint=eastwest;" parent="tGhq1vd1xCX6ENyTumZ_-94" vertex="1">
          <mxGeometry y="256" width="190" height="26" as="geometry" />
        </mxCell>
        <mxCell id="QhkTqGAl0PFYy6q8hVvx-32" value="dimensiones_producto" style="text;align=left;verticalAlign=top;spacingLeft=4;spacingRight=4;overflow=hidden;rotatable=0;points=[[0,0.5],[1,0.5]];portConstraint=eastwest;" parent="tGhq1vd1xCX6ENyTumZ_-94" vertex="1">
          <mxGeometry y="282" width="190" height="26" as="geometry" />
        </mxCell>
        <mxCell id="QhkTqGAl0PFYy6q8hVvx-33" value="venta_producto" style="text;align=left;verticalAlign=top;spacingLeft=4;spacingRight=4;overflow=hidden;rotatable=0;points=[[0,0.5],[1,0.5]];portConstraint=eastwest;" parent="tGhq1vd1xCX6ENyTumZ_-94" vertex="1">
          <mxGeometry y="308" width="190" height="26" as="geometry" />
        </mxCell>
        <mxCell id="QhkTqGAl0PFYy6q8hVvx-35" value="estado_producto" style="text;align=left;verticalAlign=top;spacingLeft=4;spacingRight=4;overflow=hidden;rotatable=0;points=[[0,0.5],[1,0.5]];portConstraint=eastwest;" parent="tGhq1vd1xCX6ENyTumZ_-94" vertex="1">
          <mxGeometry y="334" width="190" height="26" as="geometry" />
        </mxCell>
        <mxCell id="tGhq1vd1xCX6ENyTumZ_-99" value="fecha_creacion" style="text;align=left;verticalAlign=top;spacingLeft=4;spacingRight=4;overflow=hidden;rotatable=0;points=[[0,0.5],[1,0.5]];portConstraint=eastwest;rounded=0;shadow=0;html=0;" parent="tGhq1vd1xCX6ENyTumZ_-94" vertex="1">
          <mxGeometry y="360" width="190" height="26" as="geometry" />
        </mxCell>
        <mxCell id="tGhq1vd1xCX6ENyTumZ_-98" value="fecha_actualizacion" style="text;align=left;verticalAlign=top;spacingLeft=4;spacingRight=4;overflow=hidden;rotatable=0;points=[[0,0.5],[1,0.5]];portConstraint=eastwest;rounded=0;shadow=0;html=0;" parent="tGhq1vd1xCX6ENyTumZ_-94" vertex="1">
          <mxGeometry y="386" width="190" height="28" as="geometry" />
        </mxCell>
        <mxCell id="tGhq1vd1xCX6ENyTumZ_-104" value="" style="endArrow=none;html=1;rounded=0;strokeColor=default;align=center;verticalAlign=middle;fontFamily=Helvetica;fontSize=11;fontColor=default;labelBackgroundColor=default;edgeStyle=orthogonalEdgeStyle;" parent="WIyWlLk6GJQsqaUBKTNV-1" source="tGhq1vd1xCX6ENyTumZ_-94" target="tGhq1vd1xCX6ENyTumZ_-64" edge="1">
          <mxGeometry relative="1" as="geometry">
            <mxPoint x="1440" y="-1540" as="sourcePoint" />
            <mxPoint x="1440" y="-1610" as="targetPoint" />
            <Array as="points">
              <mxPoint x="-50" y="-1360" />
            </Array>
          </mxGeometry>
        </mxCell>
        <mxCell id="tGhq1vd1xCX6ENyTumZ_-105" value="*" style="resizable=0;html=1;whiteSpace=wrap;align=left;verticalAlign=bottom;fontFamily=Helvetica;fontSize=16;fontColor=default;labelBackgroundColor=none;fontStyle=1" parent="tGhq1vd1xCX6ENyTumZ_-104" connectable="0" vertex="1">
          <mxGeometry x="-1" relative="1" as="geometry">
            <mxPoint x="-20" as="offset" />
          </mxGeometry>
        </mxCell>
        <mxCell id="tGhq1vd1xCX6ENyTumZ_-106" value="*" style="resizable=0;html=1;whiteSpace=wrap;align=right;verticalAlign=bottom;fontFamily=Helvetica;fontSize=16;fontColor=default;labelBackgroundColor=none;fontStyle=1" parent="tGhq1vd1xCX6ENyTumZ_-104" connectable="0" vertex="1">
          <mxGeometry x="1" relative="1" as="geometry">
            <mxPoint x="20" y="30" as="offset" />
          </mxGeometry>
        </mxCell>
        <mxCell id="pzW-7_iiwVMMT-klEPPE-11" value="tiene" style="edgeLabel;html=1;align=center;verticalAlign=middle;resizable=0;points=[];" parent="tGhq1vd1xCX6ENyTumZ_-104" vertex="1" connectable="0">
          <mxGeometry x="-0.4" relative="1" as="geometry">
            <mxPoint y="-20" as="offset" />
          </mxGeometry>
        </mxCell>
        <mxCell id="tGhq1vd1xCX6ENyTumZ_-243" value="detalles_ventas" style="swimlane;fontStyle=0;align=center;verticalAlign=top;childLayout=stackLayout;horizontal=1;startSize=26;horizontalStack=0;resizeParent=1;resizeLast=0;collapsible=1;marginBottom=0;rounded=0;shadow=0;strokeWidth=1;" parent="WIyWlLk6GJQsqaUBKTNV-1" vertex="1">
          <mxGeometry x="390" y="-1304" width="190" height="164" as="geometry">
            <mxRectangle x="130" y="380" width="160" height="26" as="alternateBounds" />
          </mxGeometry>
        </mxCell>
        <mxCell id="tGhq1vd1xCX6ENyTumZ_-245" value="cantitad_detalleVenta" style="text;align=left;verticalAlign=top;spacingLeft=4;spacingRight=4;overflow=hidden;rotatable=0;points=[[0,0.5],[1,0.5]];portConstraint=eastwest;rounded=0;shadow=0;html=0;" parent="tGhq1vd1xCX6ENyTumZ_-243" vertex="1">
          <mxGeometry y="26" width="190" height="28" as="geometry" />
        </mxCell>
        <mxCell id="tGhq1vd1xCX6ENyTumZ_-246" value="precio_unitario_detalleVenta" style="text;align=left;verticalAlign=top;spacingLeft=4;spacingRight=4;overflow=hidden;rotatable=0;points=[[0,0.5],[1,0.5]];portConstraint=eastwest;rounded=0;shadow=0;html=0;" parent="tGhq1vd1xCX6ENyTumZ_-243" vertex="1">
          <mxGeometry y="54" width="190" height="28" as="geometry" />
        </mxCell>
        <mxCell id="thJgkG1LX_lcmpeD1mFp-13" value="fecha_actualizacion" style="text;align=left;verticalAlign=top;spacingLeft=4;spacingRight=4;overflow=hidden;rotatable=0;points=[[0,0.5],[1,0.5]];portConstraint=eastwest;rounded=0;shadow=0;html=0;" parent="tGhq1vd1xCX6ENyTumZ_-243" vertex="1">
          <mxGeometry y="82" width="190" height="28" as="geometry" />
        </mxCell>
        <mxCell id="thJgkG1LX_lcmpeD1mFp-12" value="fecha_creacion" style="text;align=left;verticalAlign=top;spacingLeft=4;spacingRight=4;overflow=hidden;rotatable=0;points=[[0,0.5],[1,0.5]];portConstraint=eastwest;rounded=0;shadow=0;html=0;" parent="tGhq1vd1xCX6ENyTumZ_-243" vertex="1">
          <mxGeometry y="110" width="190" height="26" as="geometry" />
        </mxCell>
        <mxCell id="tGhq1vd1xCX6ENyTumZ_-252" value="" style="endArrow=none;dashed=1;html=1;rounded=0;strokeColor=default;align=center;verticalAlign=middle;fontFamily=Helvetica;fontSize=11;fontColor=default;labelBackgroundColor=default;" parent="WIyWlLk6GJQsqaUBKTNV-1" target="tGhq1vd1xCX6ENyTumZ_-243" edge="1">
          <mxGeometry width="50" height="50" relative="1" as="geometry">
            <mxPoint x="350" y="-1260" as="sourcePoint" />
            <mxPoint x="657.6923076923076" y="-1538" as="targetPoint" />
          </mxGeometry>
        </mxCell>
        <mxCell id="HjSV1TEzzstD-xtGG22P-8" value="proveedores" style="swimlane;fontStyle=0;align=center;verticalAlign=top;childLayout=stackLayout;horizontal=1;startSize=26;horizontalStack=0;resizeParent=1;resizeLast=0;collapsible=1;marginBottom=0;rounded=0;shadow=0;strokeWidth=1;" parent="WIyWlLk6GJQsqaUBKTNV-1" vertex="1">
          <mxGeometry x="-530" y="-1776" width="160" height="250" as="geometry">
            <mxRectangle x="130" y="380" width="160" height="26" as="alternateBounds" />
          </mxGeometry>
        </mxCell>
        <mxCell id="HjSV1TEzzstD-xtGG22P-9" value="id_proveedor" style="text;align=left;verticalAlign=top;spacingLeft=4;spacingRight=4;overflow=hidden;rotatable=0;points=[[0,0.5],[1,0.5]];portConstraint=eastwest;" parent="HjSV1TEzzstD-xtGG22P-8" vertex="1">
          <mxGeometry y="26" width="160" height="26" as="geometry" />
        </mxCell>
        <mxCell id="HjSV1TEzzstD-xtGG22P-10" value="nombre_proveedor" style="text;align=left;verticalAlign=top;spacingLeft=4;spacingRight=4;overflow=hidden;rotatable=0;points=[[0,0.5],[1,0.5]];portConstraint=eastwest;rounded=0;shadow=0;html=0;" parent="HjSV1TEzzstD-xtGG22P-8" vertex="1">
          <mxGeometry y="52" width="160" height="28" as="geometry" />
        </mxCell>
        <mxCell id="HjSV1TEzzstD-xtGG22P-11" value="nit_ci_proveedor" style="text;align=left;verticalAlign=top;spacingLeft=4;spacingRight=4;overflow=hidden;rotatable=0;points=[[0,0.5],[1,0.5]];portConstraint=eastwest;rounded=0;shadow=0;html=0;" parent="HjSV1TEzzstD-xtGG22P-8" vertex="1">
          <mxGeometry y="80" width="160" height="28" as="geometry" />
        </mxCell>
        <mxCell id="QhkTqGAl0PFYy6q8hVvx-38" value="direccion_proveedor" style="text;align=left;verticalAlign=top;spacingLeft=4;spacingRight=4;overflow=hidden;rotatable=0;points=[[0,0.5],[1,0.5]];portConstraint=eastwest;rounded=0;shadow=0;html=0;" parent="HjSV1TEzzstD-xtGG22P-8" vertex="1">
          <mxGeometry y="108" width="160" height="28" as="geometry" />
        </mxCell>
        <mxCell id="HjSV1TEzzstD-xtGG22P-16" value="telefono_proveedor" style="text;align=left;verticalAlign=top;spacingLeft=4;spacingRight=4;overflow=hidden;rotatable=0;points=[[0,0.5],[1,0.5]];portConstraint=eastwest;rounded=0;shadow=0;html=0;" parent="HjSV1TEzzstD-xtGG22P-8" vertex="1">
          <mxGeometry y="136" width="160" height="28" as="geometry" />
        </mxCell>
        <mxCell id="QhkTqGAl0PFYy6q8hVvx-39" value="email_proveedor" style="text;align=left;verticalAlign=top;spacingLeft=4;spacingRight=4;overflow=hidden;rotatable=0;points=[[0,0.5],[1,0.5]];portConstraint=eastwest;rounded=0;shadow=0;html=0;" parent="HjSV1TEzzstD-xtGG22P-8" vertex="1">
          <mxGeometry y="164" width="160" height="28" as="geometry" />
        </mxCell>
        <mxCell id="thJgkG1LX_lcmpeD1mFp-20" value="fecha_creacion" style="text;align=left;verticalAlign=top;spacingLeft=4;spacingRight=4;overflow=hidden;rotatable=0;points=[[0,0.5],[1,0.5]];portConstraint=eastwest;rounded=0;shadow=0;html=0;" parent="HjSV1TEzzstD-xtGG22P-8" vertex="1">
          <mxGeometry y="192" width="160" height="26" as="geometry" />
        </mxCell>
        <mxCell id="thJgkG1LX_lcmpeD1mFp-21" value="fecha_actualizacion" style="text;align=left;verticalAlign=top;spacingLeft=4;spacingRight=4;overflow=hidden;rotatable=0;points=[[0,0.5],[1,0.5]];portConstraint=eastwest;rounded=0;shadow=0;html=0;" parent="HjSV1TEzzstD-xtGG22P-8" vertex="1">
          <mxGeometry y="218" width="160" height="28" as="geometry" />
        </mxCell>
        <mxCell id="Jjo37aYTDrCIMehfR2HO-1" value="razon_social" style="swimlane;fontStyle=0;align=center;verticalAlign=top;childLayout=stackLayout;horizontal=1;startSize=26;horizontalStack=0;resizeParent=1;resizeLast=0;collapsible=1;marginBottom=0;rounded=0;shadow=0;strokeWidth=1;" parent="WIyWlLk6GJQsqaUBKTNV-1" vertex="1">
          <mxGeometry x="390" y="-1880" width="160" height="218" as="geometry">
            <mxRectangle x="130" y="380" width="160" height="26" as="alternateBounds" />
          </mxGeometry>
        </mxCell>
        <mxCell id="Jjo37aYTDrCIMehfR2HO-2" value="id_razon_social" style="text;align=left;verticalAlign=top;spacingLeft=4;spacingRight=4;overflow=hidden;rotatable=0;points=[[0,0.5],[1,0.5]];portConstraint=eastwest;" parent="Jjo37aYTDrCIMehfR2HO-1" vertex="1">
          <mxGeometry y="26" width="160" height="26" as="geometry" />
        </mxCell>
        <mxCell id="QhkTqGAl0PFYy6q8hVvx-47" value="cliente_razon_socil" style="text;align=left;verticalAlign=top;spacingLeft=4;spacingRight=4;overflow=hidden;rotatable=0;points=[[0,0.5],[1,0.5]];portConstraint=eastwest;rounded=0;shadow=0;html=0;" parent="Jjo37aYTDrCIMehfR2HO-1" vertex="1">
          <mxGeometry y="52" width="160" height="28" as="geometry" />
        </mxCell>
        <mxCell id="Jjo37aYTDrCIMehfR2HO-14" value="telefono_razon_social" style="text;align=left;verticalAlign=top;spacingLeft=4;spacingRight=4;overflow=hidden;rotatable=0;points=[[0,0.5],[1,0.5]];portConstraint=eastwest;rounded=0;shadow=0;html=0;" parent="Jjo37aYTDrCIMehfR2HO-1" vertex="1">
          <mxGeometry y="80" width="160" height="28" as="geometry" />
        </mxCell>
        <mxCell id="d0Ygmhq4uaecyZVwAwtQ-1" value="fecha_razon_social" style="text;align=left;verticalAlign=top;spacingLeft=4;spacingRight=4;overflow=hidden;rotatable=0;points=[[0,0.5],[1,0.5]];portConstraint=eastwest;rounded=0;shadow=0;html=0;" vertex="1" parent="Jjo37aYTDrCIMehfR2HO-1">
          <mxGeometry y="108" width="160" height="28" as="geometry" />
        </mxCell>
        <mxCell id="Jjo37aYTDrCIMehfR2HO-8" value="fecha_razon_social" style="text;align=left;verticalAlign=top;spacingLeft=4;spacingRight=4;overflow=hidden;rotatable=0;points=[[0,0.5],[1,0.5]];portConstraint=eastwest;rounded=0;shadow=0;html=0;" parent="Jjo37aYTDrCIMehfR2HO-1" vertex="1">
          <mxGeometry y="136" width="160" height="28" as="geometry" />
        </mxCell>
        <mxCell id="thJgkG1LX_lcmpeD1mFp-15" value="fecha_actualizacion" style="text;align=left;verticalAlign=top;spacingLeft=4;spacingRight=4;overflow=hidden;rotatable=0;points=[[0,0.5],[1,0.5]];portConstraint=eastwest;rounded=0;shadow=0;html=0;" parent="Jjo37aYTDrCIMehfR2HO-1" vertex="1">
          <mxGeometry y="164" width="160" height="28" as="geometry" />
        </mxCell>
        <mxCell id="thJgkG1LX_lcmpeD1mFp-14" value="fecha_creacion" style="text;align=left;verticalAlign=top;spacingLeft=4;spacingRight=4;overflow=hidden;rotatable=0;points=[[0,0.5],[1,0.5]];portConstraint=eastwest;rounded=0;shadow=0;html=0;" parent="Jjo37aYTDrCIMehfR2HO-1" vertex="1">
          <mxGeometry y="192" width="160" height="26" as="geometry" />
        </mxCell>
        <mxCell id="d0Ygmhq4uaecyZVwAwtQ-2" style="edgeStyle=orthogonalEdgeStyle;rounded=0;orthogonalLoop=1;jettySize=auto;html=1;exitX=0;exitY=0.5;exitDx=0;exitDy=0;" edge="1" parent="Jjo37aYTDrCIMehfR2HO-1" source="Jjo37aYTDrCIMehfR2HO-8" target="Jjo37aYTDrCIMehfR2HO-8">
          <mxGeometry relative="1" as="geometry" />
        </mxCell>
        <mxCell id="QhkTqGAl0PFYy6q8hVvx-3" value="" style="endArrow=none;html=1;rounded=0;strokeColor=default;align=center;verticalAlign=middle;fontFamily=Helvetica;fontSize=11;fontColor=default;labelBackgroundColor=default;" parent="WIyWlLk6GJQsqaUBKTNV-1" source="tGhq1vd1xCX6ENyTumZ_-64" target="HjSV1TEzzstD-xtGG22P-8" edge="1">
          <mxGeometry relative="1" as="geometry">
            <mxPoint x="300" y="-1270" as="sourcePoint" />
            <mxPoint x="-170" y="-1290" as="targetPoint" />
          </mxGeometry>
        </mxCell>
        <mxCell id="QhkTqGAl0PFYy6q8hVvx-4" value="*" style="resizable=0;html=1;whiteSpace=wrap;align=left;verticalAlign=bottom;fontFamily=Helvetica;fontSize=16;fontColor=default;labelBackgroundColor=none;fontStyle=1" parent="QhkTqGAl0PFYy6q8hVvx-3" connectable="0" vertex="1">
          <mxGeometry x="-1" relative="1" as="geometry">
            <mxPoint x="-20" y="25" as="offset" />
          </mxGeometry>
        </mxCell>
        <mxCell id="QhkTqGAl0PFYy6q8hVvx-5" value="1" style="resizable=0;html=1;whiteSpace=wrap;align=right;verticalAlign=bottom;fontFamily=Helvetica;fontSize=13;fontColor=default;labelBackgroundColor=none;fontStyle=0" parent="QhkTqGAl0PFYy6q8hVvx-3" connectable="0" vertex="1">
          <mxGeometry x="1" relative="1" as="geometry">
            <mxPoint x="20" y="30" as="offset" />
          </mxGeometry>
        </mxCell>
        <mxCell id="QhkTqGAl0PFYy6q8hVvx-6" value="tiene" style="edgeLabel;html=1;align=center;verticalAlign=middle;resizable=0;points=[];" parent="QhkTqGAl0PFYy6q8hVvx-3" vertex="1" connectable="0">
          <mxGeometry x="-0.4" relative="1" as="geometry">
            <mxPoint x="-20" y="-10" as="offset" />
          </mxGeometry>
        </mxCell>
        <mxCell id="tGhq1vd1xCX6ENyTumZ_-61" value="" style="endArrow=none;html=1;rounded=0;strokeColor=default;align=center;verticalAlign=middle;fontFamily=Helvetica;fontSize=11;fontColor=default;labelBackgroundColor=default;" parent="WIyWlLk6GJQsqaUBKTNV-1" source="zkfFHV4jXpPFQw0GAbJ--6" target="tGhq1vd1xCX6ENyTumZ_-64" edge="1">
          <mxGeometry relative="1" as="geometry">
            <mxPoint x="1370" y="-1830" as="sourcePoint" />
            <mxPoint x="1470" y="-1796" as="targetPoint" />
          </mxGeometry>
        </mxCell>
        <mxCell id="tGhq1vd1xCX6ENyTumZ_-62" value="1" style="resizable=0;html=1;whiteSpace=wrap;align=left;verticalAlign=bottom;fontFamily=Helvetica;fontSize=11;fontColor=default;labelBackgroundColor=default;" parent="tGhq1vd1xCX6ENyTumZ_-61" connectable="0" vertex="1">
          <mxGeometry x="-1" relative="1" as="geometry">
            <mxPoint x="-20" y="-4" as="offset" />
          </mxGeometry>
        </mxCell>
        <mxCell id="tGhq1vd1xCX6ENyTumZ_-63" value="*" style="resizable=0;html=1;whiteSpace=wrap;align=center;verticalAlign=bottom;fontFamily=Helvetica;fontSize=16;fontColor=default;labelBackgroundColor=none;spacing=2;fontStyle=1" parent="tGhq1vd1xCX6ENyTumZ_-61" connectable="0" vertex="1">
          <mxGeometry x="1" relative="1" as="geometry">
            <mxPoint x="10" y="5" as="offset" />
          </mxGeometry>
        </mxCell>
        <mxCell id="QhkTqGAl0PFYy6q8hVvx-15" value="realiza" style="edgeLabel;html=1;align=center;verticalAlign=middle;resizable=0;points=[];" parent="tGhq1vd1xCX6ENyTumZ_-61" vertex="1" connectable="0">
          <mxGeometry x="0.2182" relative="1" as="geometry">
            <mxPoint x="5" as="offset" />
          </mxGeometry>
        </mxCell>
        <mxCell id="tGhq1vd1xCX6ENyTumZ_-260" value="" style="endArrow=none;html=1;rounded=0;strokeColor=default;align=center;verticalAlign=middle;fontFamily=Helvetica;fontSize=11;fontColor=default;labelBackgroundColor=default;" parent="WIyWlLk6GJQsqaUBKTNV-1" source="zkfFHV4jXpPFQw0GAbJ--6" target="tGhq1vd1xCX6ENyTumZ_-230" edge="1">
          <mxGeometry relative="1" as="geometry">
            <mxPoint x="1430" y="-1180" as="sourcePoint" />
            <mxPoint x="1430" y="-1010" as="targetPoint" />
          </mxGeometry>
        </mxCell>
        <mxCell id="tGhq1vd1xCX6ENyTumZ_-261" value="1" style="resizable=0;html=1;whiteSpace=wrap;align=left;verticalAlign=bottom;fontFamily=Helvetica;fontSize=11;fontColor=default;labelBackgroundColor=default;" parent="tGhq1vd1xCX6ENyTumZ_-260" connectable="0" vertex="1">
          <mxGeometry x="-1" relative="1" as="geometry">
            <mxPoint x="10" y="37" as="offset" />
          </mxGeometry>
        </mxCell>
        <mxCell id="tGhq1vd1xCX6ENyTumZ_-262" value="*" style="resizable=0;html=1;whiteSpace=wrap;align=center;verticalAlign=bottom;fontFamily=Helvetica;fontSize=16;fontColor=default;labelBackgroundColor=none;spacing=2;fontStyle=1;" parent="tGhq1vd1xCX6ENyTumZ_-260" connectable="0" vertex="1">
          <mxGeometry x="1" relative="1" as="geometry">
            <mxPoint x="-20" y="20" as="offset" />
          </mxGeometry>
        </mxCell>
        <mxCell id="HjSV1TEzzstD-xtGG22P-29" value="realiza" style="edgeLabel;html=1;align=center;verticalAlign=middle;resizable=0;points=[];" parent="tGhq1vd1xCX6ENyTumZ_-260" vertex="1" connectable="0">
          <mxGeometry x="0.1603" y="1" relative="1" as="geometry">
            <mxPoint as="offset" />
          </mxGeometry>
        </mxCell>
        <mxCell id="c4ZeExv-LCt1Ty9fR3GP-0" value="cliente" style="swimlane;fontStyle=0;align=center;verticalAlign=top;childLayout=stackLayout;horizontal=1;startSize=26;horizontalStack=0;resizeParent=1;resizeLast=0;collapsible=1;marginBottom=0;rounded=0;shadow=0;strokeWidth=1;" parent="WIyWlLk6GJQsqaUBKTNV-1" vertex="1">
          <mxGeometry x="770" y="-1810" width="160" height="304" as="geometry">
            <mxRectangle x="130" y="380" width="160" height="26" as="alternateBounds" />
          </mxGeometry>
        </mxCell>
        <mxCell id="c4ZeExv-LCt1Ty9fR3GP-1" value="id_cliente" style="text;align=left;verticalAlign=top;spacingLeft=4;spacingRight=4;overflow=hidden;rotatable=0;points=[[0,0.5],[1,0.5]];portConstraint=eastwest;" parent="c4ZeExv-LCt1Ty9fR3GP-0" vertex="1">
          <mxGeometry y="26" width="160" height="26" as="geometry" />
        </mxCell>
        <mxCell id="c4ZeExv-LCt1Ty9fR3GP-2" value="nombre_cliente" style="text;align=left;verticalAlign=top;spacingLeft=4;spacingRight=4;overflow=hidden;rotatable=0;points=[[0,0.5],[1,0.5]];portConstraint=eastwest;rounded=0;shadow=0;html=0;" parent="c4ZeExv-LCt1Ty9fR3GP-0" vertex="1">
          <mxGeometry y="52" width="160" height="28" as="geometry" />
        </mxCell>
        <mxCell id="c4ZeExv-LCt1Ty9fR3GP-3" value="apellido_cliente" style="text;align=left;verticalAlign=top;spacingLeft=4;spacingRight=4;overflow=hidden;rotatable=0;points=[[0,0.5],[1,0.5]];portConstraint=eastwest;rounded=0;shadow=0;html=0;" parent="c4ZeExv-LCt1Ty9fR3GP-0" vertex="1">
          <mxGeometry y="80" width="160" height="28" as="geometry" />
        </mxCell>
        <mxCell id="c4ZeExv-LCt1Ty9fR3GP-4" value="email_cliente" style="text;align=left;verticalAlign=top;spacingLeft=4;spacingRight=4;overflow=hidden;rotatable=0;points=[[0,0.5],[1,0.5]];portConstraint=eastwest;rounded=0;shadow=0;html=0;" parent="c4ZeExv-LCt1Ty9fR3GP-0" vertex="1">
          <mxGeometry y="108" width="160" height="28" as="geometry" />
        </mxCell>
        <mxCell id="c4ZeExv-LCt1Ty9fR3GP-5" value="telefono_cliente" style="text;align=left;verticalAlign=top;spacingLeft=4;spacingRight=4;overflow=hidden;rotatable=0;points=[[0,0.5],[1,0.5]];portConstraint=eastwest;rounded=0;shadow=0;html=0;" parent="c4ZeExv-LCt1Ty9fR3GP-0" vertex="1">
          <mxGeometry y="136" width="160" height="28" as="geometry" />
        </mxCell>
        <mxCell id="c4ZeExv-LCt1Ty9fR3GP-6" value="direccion_cliente" style="text;align=left;verticalAlign=top;spacingLeft=4;spacingRight=4;overflow=hidden;rotatable=0;points=[[0,0.5],[1,0.5]];portConstraint=eastwest;rounded=0;shadow=0;html=0;" parent="c4ZeExv-LCt1Ty9fR3GP-0" vertex="1">
          <mxGeometry y="164" width="160" height="28" as="geometry" />
        </mxCell>
        <mxCell id="c4ZeExv-LCt1Ty9fR3GP-7" value="dni_cliente" style="text;align=left;verticalAlign=top;spacingLeft=4;spacingRight=4;overflow=hidden;rotatable=0;points=[[0,0.5],[1,0.5]];portConstraint=eastwest;rounded=0;shadow=0;html=0;" parent="c4ZeExv-LCt1Ty9fR3GP-0" vertex="1">
          <mxGeometry y="192" width="160" height="28" as="geometry" />
        </mxCell>
        <mxCell id="c4ZeExv-LCt1Ty9fR3GP-8" value="fecha_creacion" style="text;align=left;verticalAlign=top;spacingLeft=4;spacingRight=4;overflow=hidden;rotatable=0;points=[[0,0.5],[1,0.5]];portConstraint=eastwest;rounded=0;shadow=0;html=0;" parent="c4ZeExv-LCt1Ty9fR3GP-0" vertex="1">
          <mxGeometry y="220" width="160" height="28" as="geometry" />
        </mxCell>
        <mxCell id="c4ZeExv-LCt1Ty9fR3GP-9" value="fecha_actualizacion" style="text;align=left;verticalAlign=top;spacingLeft=4;spacingRight=4;overflow=hidden;rotatable=0;points=[[0,0.5],[1,0.5]];portConstraint=eastwest;rounded=0;shadow=0;html=0;" parent="c4ZeExv-LCt1Ty9fR3GP-0" vertex="1">
          <mxGeometry y="248" width="160" height="28" as="geometry" />
        </mxCell>
        <mxCell id="c4ZeExv-LCt1Ty9fR3GP-10" value="pagos" style="swimlane;fontStyle=0;align=center;verticalAlign=top;childLayout=stackLayout;horizontal=1;startSize=26;horizontalStack=0;resizeParent=1;resizeLast=0;collapsible=1;marginBottom=0;rounded=0;shadow=0;strokeWidth=1;" parent="WIyWlLk6GJQsqaUBKTNV-1" vertex="1">
          <mxGeometry x="780" y="-1400" width="160" height="470" as="geometry">
            <mxRectangle x="130" y="380" width="160" height="26" as="alternateBounds" />
          </mxGeometry>
        </mxCell>
        <mxCell id="c4ZeExv-LCt1Ty9fR3GP-11" value="id_pago" style="text;align=left;verticalAlign=top;spacingLeft=4;spacingRight=4;overflow=hidden;rotatable=0;points=[[0,0.5],[1,0.5]];portConstraint=eastwest;" parent="c4ZeExv-LCt1Ty9fR3GP-10" vertex="1">
          <mxGeometry y="26" width="160" height="26" as="geometry" />
        </mxCell>
        <mxCell id="c4ZeExv-LCt1Ty9fR3GP-12" value="id_venta" style="text;align=left;verticalAlign=top;spacingLeft=4;spacingRight=4;overflow=hidden;rotatable=0;points=[[0,0.5],[1,0.5]];portConstraint=eastwest;" parent="c4ZeExv-LCt1Ty9fR3GP-10" vertex="1">
          <mxGeometry y="52" width="160" height="26" as="geometry" />
        </mxCell>
        <mxCell id="c4ZeExv-LCt1Ty9fR3GP-13" value="id_metodo_pago" style="text;align=left;verticalAlign=top;spacingLeft=4;spacingRight=4;overflow=hidden;rotatable=0;points=[[0,0.5],[1,0.5]];portConstraint=eastwest;rounded=0;shadow=0;html=0;" parent="c4ZeExv-LCt1Ty9fR3GP-10" vertex="1">
          <mxGeometry y="78" width="160" height="28" as="geometry" />
        </mxCell>
        <mxCell id="c4ZeExv-LCt1Ty9fR3GP-64" value="id_usuario" style="text;align=left;verticalAlign=top;spacingLeft=4;spacingRight=4;overflow=hidden;rotatable=0;points=[[0,0.5],[1,0.5]];portConstraint=eastwest;rounded=0;shadow=0;html=0;" parent="c4ZeExv-LCt1Ty9fR3GP-10" vertex="1">
          <mxGeometry y="106" width="160" height="28" as="geometry" />
        </mxCell>
        <mxCell id="c4ZeExv-LCt1Ty9fR3GP-14" value="monto" style="text;align=left;verticalAlign=top;spacingLeft=4;spacingRight=4;overflow=hidden;rotatable=0;points=[[0,0.5],[1,0.5]];portConstraint=eastwest;rounded=0;shadow=0;html=0;" parent="c4ZeExv-LCt1Ty9fR3GP-10" vertex="1">
          <mxGeometry y="134" width="160" height="28" as="geometry" />
        </mxCell>
        <mxCell id="c4ZeExv-LCt1Ty9fR3GP-15" value="estado" style="text;align=left;verticalAlign=top;spacingLeft=4;spacingRight=4;overflow=hidden;rotatable=0;points=[[0,0.5],[1,0.5]];portConstraint=eastwest;rounded=0;shadow=0;html=0;" parent="c4ZeExv-LCt1Ty9fR3GP-10" vertex="1">
          <mxGeometry y="162" width="160" height="28" as="geometry" />
        </mxCell>
        <mxCell id="c4ZeExv-LCt1Ty9fR3GP-16" value="estado_notificacion" style="text;align=left;verticalAlign=top;spacingLeft=4;spacingRight=4;overflow=hidden;rotatable=0;points=[[0,0.5],[1,0.5]];portConstraint=eastwest;rounded=0;shadow=0;html=0;" parent="c4ZeExv-LCt1Ty9fR3GP-10" vertex="1">
          <mxGeometry y="190" width="160" height="28" as="geometry" />
        </mxCell>
        <mxCell id="c4ZeExv-LCt1Ty9fR3GP-17" value="detalle" style="text;align=left;verticalAlign=top;spacingLeft=4;spacingRight=4;overflow=hidden;rotatable=0;points=[[0,0.5],[1,0.5]];portConstraint=eastwest;rounded=0;shadow=0;html=0;" parent="c4ZeExv-LCt1Ty9fR3GP-10" vertex="1">
          <mxGeometry y="218" width="160" height="28" as="geometry" />
        </mxCell>
        <mxCell id="c4ZeExv-LCt1Ty9fR3GP-18" value="remitente_nombre" style="text;align=left;verticalAlign=top;spacingLeft=4;spacingRight=4;overflow=hidden;rotatable=0;points=[[0,0.5],[1,0.5]];portConstraint=eastwest;rounded=0;shadow=0;html=0;" parent="c4ZeExv-LCt1Ty9fR3GP-10" vertex="1">
          <mxGeometry y="246" width="160" height="28" as="geometry" />
        </mxCell>
        <mxCell id="c4ZeExv-LCt1Ty9fR3GP-19" value="remitente_banco" style="text;align=left;verticalAlign=top;spacingLeft=4;spacingRight=4;overflow=hidden;rotatable=0;points=[[0,0.5],[1,0.5]];portConstraint=eastwest;rounded=0;shadow=0;html=0;" parent="c4ZeExv-LCt1Ty9fR3GP-10" vertex="1">
          <mxGeometry y="274" width="160" height="28" as="geometry" />
        </mxCell>
        <mxCell id="c4ZeExv-LCt1Ty9fR3GP-20" value="remitente_documento" style="text;align=left;verticalAlign=top;spacingLeft=4;spacingRight=4;overflow=hidden;rotatable=0;points=[[0,0.5],[1,0.5]];portConstraint=eastwest;rounded=0;shadow=0;html=0;" parent="c4ZeExv-LCt1Ty9fR3GP-10" vertex="1">
          <mxGeometry y="302" width="160" height="28" as="geometry" />
        </mxCell>
        <mxCell id="c4ZeExv-LCt1Ty9fR3GP-21" value="remitente_cuenta" style="text;align=left;verticalAlign=top;spacingLeft=4;spacingRight=4;overflow=hidden;rotatable=0;points=[[0,0.5],[1,0.5]];portConstraint=eastwest;rounded=0;shadow=0;html=0;" parent="c4ZeExv-LCt1Ty9fR3GP-10" vertex="1">
          <mxGeometry y="330" width="160" height="28" as="geometry" />
        </mxCell>
        <mxCell id="c4ZeExv-LCt1Ty9fR3GP-22" value="movimiento_id" style="text;align=left;verticalAlign=top;spacingLeft=4;spacingRight=4;overflow=hidden;rotatable=0;points=[[0,0.5],[1,0.5]];portConstraint=eastwest;rounded=0;shadow=0;html=0;" parent="c4ZeExv-LCt1Ty9fR3GP-10" vertex="1">
          <mxGeometry y="358" width="160" height="28" as="geometry" />
        </mxCell>
        <mxCell id="c4ZeExv-LCt1Ty9fR3GP-23" value="qr_base64" style="text;align=left;verticalAlign=top;spacingLeft=4;spacingRight=4;overflow=hidden;rotatable=0;points=[[0,0.5],[1,0.5]];portConstraint=eastwest;rounded=0;shadow=0;html=0;" parent="c4ZeExv-LCt1Ty9fR3GP-10" vertex="1">
          <mxGeometry y="386" width="160" height="28" as="geometry" />
        </mxCell>
        <mxCell id="c4ZeExv-LCt1Ty9fR3GP-24" value="fecha_creacion" style="text;align=left;verticalAlign=top;spacingLeft=4;spacingRight=4;overflow=hidden;rotatable=0;points=[[0,0.5],[1,0.5]];portConstraint=eastwest;rounded=0;shadow=0;html=0;" parent="c4ZeExv-LCt1Ty9fR3GP-10" vertex="1">
          <mxGeometry y="414" width="160" height="28" as="geometry" />
        </mxCell>
        <mxCell id="c4ZeExv-LCt1Ty9fR3GP-25" value="fecha_actualizacion" style="text;align=left;verticalAlign=top;spacingLeft=4;spacingRight=4;overflow=hidden;rotatable=0;points=[[0,0.5],[1,0.5]];portConstraint=eastwest;rounded=0;shadow=0;html=0;" parent="c4ZeExv-LCt1Ty9fR3GP-10" vertex="1">
          <mxGeometry y="442" width="160" height="28" as="geometry" />
        </mxCell>
        <mxCell id="c4ZeExv-LCt1Ty9fR3GP-26" value="metodo_pago" style="swimlane;fontStyle=0;align=center;verticalAlign=top;childLayout=stackLayout;horizontal=1;startSize=26;horizontalStack=0;resizeParent=1;resizeLast=0;collapsible=1;marginBottom=0;rounded=0;shadow=0;strokeWidth=1;" parent="WIyWlLk6GJQsqaUBKTNV-1" vertex="1">
          <mxGeometry x="510" y="-1030" width="160" height="150" as="geometry">
            <mxRectangle x="130" y="380" width="160" height="26" as="alternateBounds" />
          </mxGeometry>
        </mxCell>
        <mxCell id="c4ZeExv-LCt1Ty9fR3GP-27" value="id_metodo_pago" style="text;align=left;verticalAlign=top;spacingLeft=4;spacingRight=4;overflow=hidden;rotatable=0;points=[[0,0.5],[1,0.5]];portConstraint=eastwest;" parent="c4ZeExv-LCt1Ty9fR3GP-26" vertex="1">
          <mxGeometry y="26" width="160" height="26" as="geometry" />
        </mxCell>
        <mxCell id="c4ZeExv-LCt1Ty9fR3GP-28" value="nombre" style="text;align=left;verticalAlign=top;spacingLeft=4;spacingRight=4;overflow=hidden;rotatable=0;points=[[0,0.5],[1,0.5]];portConstraint=eastwest;rounded=0;shadow=0;html=0;" parent="c4ZeExv-LCt1Ty9fR3GP-26" vertex="1">
          <mxGeometry y="52" width="160" height="28" as="geometry" />
        </mxCell>
        <mxCell id="c4ZeExv-LCt1Ty9fR3GP-29" value="fecha_creacion" style="text;align=left;verticalAlign=top;spacingLeft=4;spacingRight=4;overflow=hidden;rotatable=0;points=[[0,0.5],[1,0.5]];portConstraint=eastwest;rounded=0;shadow=0;html=0;" parent="c4ZeExv-LCt1Ty9fR3GP-26" vertex="1">
          <mxGeometry y="80" width="160" height="28" as="geometry" />
        </mxCell>
        <mxCell id="c4ZeExv-LCt1Ty9fR3GP-30" value="fecha_actualizacion" style="text;align=left;verticalAlign=top;spacingLeft=4;spacingRight=4;overflow=hidden;rotatable=0;points=[[0,0.5],[1,0.5]];portConstraint=eastwest;rounded=0;shadow=0;html=0;" parent="c4ZeExv-LCt1Ty9fR3GP-26" vertex="1">
          <mxGeometry y="108" width="160" height="28" as="geometry" />
        </mxCell>
        <mxCell id="c4ZeExv-LCt1Ty9fR3GP-31" value="" style="endArrow=none;html=1;rounded=0;strokeColor=default;align=center;verticalAlign=middle;fontFamily=Helvetica;fontSize=11;fontColor=default;labelBackgroundColor=default;" parent="WIyWlLk6GJQsqaUBKTNV-1" source="c4ZeExv-LCt1Ty9fR3GP-0" target="c4ZeExv-LCt1Ty9fR3GP-10" edge="1">
          <mxGeometry relative="1" as="geometry">
            <mxPoint x="1120" y="-2793" as="sourcePoint" />
            <mxPoint x="1100" y="-2164" as="targetPoint" />
          </mxGeometry>
        </mxCell>
        <mxCell id="c4ZeExv-LCt1Ty9fR3GP-32" value="1" style="resizable=0;html=1;whiteSpace=wrap;align=left;verticalAlign=bottom;fontFamily=Helvetica;fontSize=11;fontColor=default;labelBackgroundColor=default;" parent="c4ZeExv-LCt1Ty9fR3GP-31" connectable="0" vertex="1">
          <mxGeometry x="-1" relative="1" as="geometry">
            <mxPoint x="-33" y="36" as="offset" />
          </mxGeometry>
        </mxCell>
        <mxCell id="c4ZeExv-LCt1Ty9fR3GP-33" value="*" style="resizable=0;html=1;whiteSpace=wrap;align=center;verticalAlign=bottom;fontFamily=Helvetica;fontSize=16;fontColor=default;labelBackgroundColor=none;spacing=2;fontStyle=1;" parent="c4ZeExv-LCt1Ty9fR3GP-31" connectable="0" vertex="1">
          <mxGeometry x="1" relative="1" as="geometry">
            <mxPoint x="-15" as="offset" />
          </mxGeometry>
        </mxCell>
        <mxCell id="c4ZeExv-LCt1Ty9fR3GP-34" value="realiza" style="edgeLabel;html=1;align=center;verticalAlign=middle;resizable=0;points=[];" parent="c4ZeExv-LCt1Ty9fR3GP-31" vertex="1" connectable="0">
          <mxGeometry x="0.2525" y="-4" relative="1" as="geometry">
            <mxPoint x="-1" y="-14" as="offset" />
          </mxGeometry>
        </mxCell>
        <mxCell id="c4ZeExv-LCt1Ty9fR3GP-35" value="" style="endArrow=none;html=1;rounded=0;strokeColor=default;align=center;verticalAlign=middle;fontFamily=Helvetica;fontSize=11;fontColor=default;labelBackgroundColor=default;" parent="WIyWlLk6GJQsqaUBKTNV-1" source="c4ZeExv-LCt1Ty9fR3GP-26" target="c4ZeExv-LCt1Ty9fR3GP-10" edge="1">
          <mxGeometry relative="1" as="geometry">
            <mxPoint x="540" y="-2673" as="sourcePoint" />
            <mxPoint x="660" y="-2679" as="targetPoint" />
          </mxGeometry>
        </mxCell>
        <mxCell id="c4ZeExv-LCt1Ty9fR3GP-36" value="1" style="resizable=0;html=1;whiteSpace=wrap;align=left;verticalAlign=bottom;fontFamily=Helvetica;fontSize=11;fontColor=default;labelBackgroundColor=default;" parent="c4ZeExv-LCt1Ty9fR3GP-35" connectable="0" vertex="1">
          <mxGeometry x="-1" relative="1" as="geometry">
            <mxPoint x="10" y="-5" as="offset" />
          </mxGeometry>
        </mxCell>
        <mxCell id="c4ZeExv-LCt1Ty9fR3GP-37" value="*" style="resizable=0;html=1;whiteSpace=wrap;align=center;verticalAlign=bottom;fontFamily=Helvetica;fontSize=16;fontColor=default;labelBackgroundColor=none;spacing=2;fontStyle=1;" parent="c4ZeExv-LCt1Ty9fR3GP-35" connectable="0" vertex="1">
          <mxGeometry x="1" relative="1" as="geometry">
            <mxPoint x="-10" y="-11" as="offset" />
          </mxGeometry>
        </mxCell>
        <mxCell id="c4ZeExv-LCt1Ty9fR3GP-38" value="tiene" style="edgeLabel;html=1;align=center;verticalAlign=middle;resizable=0;points=[];" parent="c4ZeExv-LCt1Ty9fR3GP-35" vertex="1" connectable="0">
          <mxGeometry x="0.2525" y="-4" relative="1" as="geometry">
            <mxPoint x="-4" as="offset" />
          </mxGeometry>
        </mxCell>
        <mxCell id="c4ZeExv-LCt1Ty9fR3GP-39" value="" style="endArrow=none;html=1;rounded=0;strokeColor=default;align=center;verticalAlign=middle;fontFamily=Helvetica;fontSize=11;fontColor=default;labelBackgroundColor=default;" parent="WIyWlLk6GJQsqaUBKTNV-1" source="c4ZeExv-LCt1Ty9fR3GP-0" target="tGhq1vd1xCX6ENyTumZ_-230" edge="1">
          <mxGeometry relative="1" as="geometry">
            <mxPoint x="860" y="-1180" as="sourcePoint" />
            <mxPoint x="580" y="-1120" as="targetPoint" />
          </mxGeometry>
        </mxCell>
        <mxCell id="c4ZeExv-LCt1Ty9fR3GP-40" value="1" style="resizable=0;html=1;whiteSpace=wrap;align=left;verticalAlign=bottom;fontFamily=Helvetica;fontSize=11;fontColor=default;labelBackgroundColor=default;" parent="c4ZeExv-LCt1Ty9fR3GP-39" connectable="0" vertex="1">
          <mxGeometry x="-1" relative="1" as="geometry">
            <mxPoint x="-10" y="24" as="offset" />
          </mxGeometry>
        </mxCell>
        <mxCell id="c4ZeExv-LCt1Ty9fR3GP-41" value="*" style="resizable=0;html=1;whiteSpace=wrap;align=center;verticalAlign=bottom;fontFamily=Helvetica;fontSize=16;fontColor=default;labelBackgroundColor=none;spacing=2;fontStyle=1;" parent="c4ZeExv-LCt1Ty9fR3GP-39" connectable="0" vertex="1">
          <mxGeometry x="1" relative="1" as="geometry">
            <mxPoint x="20" y="29" as="offset" />
          </mxGeometry>
        </mxCell>
        <mxCell id="c4ZeExv-LCt1Ty9fR3GP-42" value="realiza" style="edgeLabel;html=1;align=center;verticalAlign=middle;resizable=0;points=[];" parent="c4ZeExv-LCt1Ty9fR3GP-39" vertex="1" connectable="0">
          <mxGeometry x="0.2525" y="-4" relative="1" as="geometry">
            <mxPoint x="29" y="-12" as="offset" />
          </mxGeometry>
        </mxCell>
        <mxCell id="c4ZeExv-LCt1Ty9fR3GP-47" value="" style="endArrow=none;html=1;rounded=0;strokeColor=default;align=center;verticalAlign=middle;fontFamily=Helvetica;fontSize=11;fontColor=default;labelBackgroundColor=default;" parent="WIyWlLk6GJQsqaUBKTNV-1" source="tGhq1vd1xCX6ENyTumZ_-230" target="c4ZeExv-LCt1Ty9fR3GP-10" edge="1">
          <mxGeometry relative="1" as="geometry">
            <mxPoint x="470" y="-1733" as="sourcePoint" />
            <mxPoint x="390" y="-1596" as="targetPoint" />
          </mxGeometry>
        </mxCell>
        <mxCell id="c4ZeExv-LCt1Ty9fR3GP-48" value="1" style="resizable=0;html=1;whiteSpace=wrap;align=left;verticalAlign=bottom;fontFamily=Helvetica;fontSize=11;fontColor=default;labelBackgroundColor=default;" parent="c4ZeExv-LCt1Ty9fR3GP-47" connectable="0" vertex="1">
          <mxGeometry x="-1" relative="1" as="geometry">
            <mxPoint x="10" y="40" as="offset" />
          </mxGeometry>
        </mxCell>
        <mxCell id="c4ZeExv-LCt1Ty9fR3GP-49" value="&lt;span style=&quot;font-size: 16px;&quot;&gt;*&lt;/span&gt;" style="resizable=0;html=1;whiteSpace=wrap;align=center;verticalAlign=bottom;fontFamily=Helvetica;fontSize=11;fontColor=default;labelBackgroundColor=none;spacing=2;fontStyle=1;" parent="c4ZeExv-LCt1Ty9fR3GP-47" connectable="0" vertex="1">
          <mxGeometry x="1" relative="1" as="geometry">
            <mxPoint x="-20" y="18" as="offset" />
          </mxGeometry>
        </mxCell>
        <mxCell id="c4ZeExv-LCt1Ty9fR3GP-50" value="tiene" style="edgeLabel;html=1;align=center;verticalAlign=middle;resizable=0;points=[];" parent="c4ZeExv-LCt1Ty9fR3GP-47" vertex="1" connectable="0">
          <mxGeometry x="0.2525" y="-4" relative="1" as="geometry">
            <mxPoint x="-34" y="-38" as="offset" />
          </mxGeometry>
        </mxCell>
        <mxCell id="c4ZeExv-LCt1Ty9fR3GP-52" value="" style="endArrow=none;html=1;rounded=0;strokeColor=default;align=center;verticalAlign=middle;fontFamily=Helvetica;fontSize=11;fontColor=default;labelBackgroundColor=default;" parent="WIyWlLk6GJQsqaUBKTNV-1" source="c4ZeExv-LCt1Ty9fR3GP-0" target="Jjo37aYTDrCIMehfR2HO-1" edge="1">
          <mxGeometry relative="1" as="geometry">
            <mxPoint x="480" y="-1680" as="sourcePoint" />
            <mxPoint x="480" y="-1580" as="targetPoint" />
          </mxGeometry>
        </mxCell>
        <mxCell id="c4ZeExv-LCt1Ty9fR3GP-53" value="1" style="resizable=0;html=1;whiteSpace=wrap;align=left;verticalAlign=bottom;fontFamily=Helvetica;fontSize=11;fontColor=default;labelBackgroundColor=default;" parent="c4ZeExv-LCt1Ty9fR3GP-52" connectable="0" vertex="1">
          <mxGeometry x="-1" relative="1" as="geometry">
            <mxPoint x="-20" y="-15" as="offset" />
          </mxGeometry>
        </mxCell>
        <mxCell id="c4ZeExv-LCt1Ty9fR3GP-54" value="&lt;font style=&quot;font-size: 12px;&quot;&gt;1..0&amp;nbsp;&lt;/font&gt;" style="resizable=0;html=1;whiteSpace=wrap;align=center;verticalAlign=bottom;fontFamily=Helvetica;fontSize=16;fontColor=default;labelBackgroundColor=none;spacing=6;fontStyle=0;spacingRight=6;spacingTop=6;" parent="c4ZeExv-LCt1Ty9fR3GP-52" connectable="0" vertex="1">
          <mxGeometry x="1" relative="1" as="geometry">
            <mxPoint x="40" y="11" as="offset" />
          </mxGeometry>
        </mxCell>
        <mxCell id="c4ZeExv-LCt1Ty9fR3GP-58" value="" style="endArrow=none;html=1;rounded=0;strokeColor=default;align=center;verticalAlign=middle;fontFamily=Helvetica;fontSize=11;fontColor=default;labelBackgroundColor=default;" parent="WIyWlLk6GJQsqaUBKTNV-1" source="zkfFHV4jXpPFQw0GAbJ--6" target="c4ZeExv-LCt1Ty9fR3GP-10" edge="1">
          <mxGeometry relative="1" as="geometry">
            <mxPoint x="260" y="-1607" as="sourcePoint" />
            <mxPoint x="1020" y="-1214.7826086956522" as="targetPoint" />
            <Array as="points">
              <mxPoint x="390" y="-1990" />
              <mxPoint x="1040" y="-1910" />
              <mxPoint x="1030" y="-1190" />
            </Array>
          </mxGeometry>
        </mxCell>
        <mxCell id="c4ZeExv-LCt1Ty9fR3GP-59" value="1" style="resizable=0;html=1;whiteSpace=wrap;align=left;verticalAlign=bottom;fontFamily=Helvetica;fontSize=11;fontColor=default;labelBackgroundColor=default;" parent="c4ZeExv-LCt1Ty9fR3GP-58" connectable="0" vertex="1">
          <mxGeometry x="-1" relative="1" as="geometry">
            <mxPoint x="10" y="-6" as="offset" />
          </mxGeometry>
        </mxCell>
        <mxCell id="c4ZeExv-LCt1Ty9fR3GP-60" value="*" style="resizable=0;html=1;whiteSpace=wrap;align=center;verticalAlign=bottom;fontFamily=Helvetica;fontSize=16;fontColor=default;labelBackgroundColor=none;spacing=2;fontStyle=1;" parent="c4ZeExv-LCt1Ty9fR3GP-58" connectable="0" vertex="1">
          <mxGeometry x="1" relative="1" as="geometry">
            <mxPoint x="10" y="4" as="offset" />
          </mxGeometry>
        </mxCell>
        <mxCell id="c4ZeExv-LCt1Ty9fR3GP-61" value="registra" style="edgeLabel;html=1;align=center;verticalAlign=middle;resizable=0;points=[];" parent="c4ZeExv-LCt1Ty9fR3GP-58" vertex="1" connectable="0">
          <mxGeometry x="0.1603" y="1" relative="1" as="geometry">
            <mxPoint as="offset" />
          </mxGeometry>
        </mxCell>
        <mxCell id="_dKKWEHPCUcyKfsjPXB_-0" value="roles" style="swimlane;fontStyle=0;align=center;verticalAlign=top;childLayout=stackLayout;horizontal=1;startSize=26;horizontalStack=0;resizeParent=1;resizeLast=0;collapsible=1;marginBottom=0;rounded=0;shadow=0;strokeWidth=1;" parent="WIyWlLk6GJQsqaUBKTNV-1" vertex="1">
          <mxGeometry x="-220" y="-2040" width="160" height="180" as="geometry">
            <mxRectangle x="130" y="380" width="160" height="26" as="alternateBounds" />
          </mxGeometry>
        </mxCell>
        <mxCell id="_dKKWEHPCUcyKfsjPXB_-1" value="id_rol" style="text;align=left;verticalAlign=top;spacingLeft=4;spacingRight=4;overflow=hidden;rotatable=0;points=[[0,0.5],[1,0.5]];portConstraint=eastwest;" parent="_dKKWEHPCUcyKfsjPXB_-0" vertex="1">
          <mxGeometry y="26" width="160" height="26" as="geometry" />
        </mxCell>
        <mxCell id="_dKKWEHPCUcyKfsjPXB_-2" value="nombre_rol" style="text;align=left;verticalAlign=top;spacingLeft=4;spacingRight=4;overflow=hidden;rotatable=0;points=[[0,0.5],[1,0.5]];portConstraint=eastwest;rounded=0;shadow=0;html=0;" parent="_dKKWEHPCUcyKfsjPXB_-0" vertex="1">
          <mxGeometry y="52" width="160" height="28" as="geometry" />
        </mxCell>
        <mxCell id="_dKKWEHPCUcyKfsjPXB_-5" value="fecha_actualizacion" style="text;align=left;verticalAlign=top;spacingLeft=4;spacingRight=4;overflow=hidden;rotatable=0;points=[[0,0.5],[1,0.5]];portConstraint=eastwest;rounded=0;shadow=0;html=0;" parent="_dKKWEHPCUcyKfsjPXB_-0" vertex="1">
          <mxGeometry y="80" width="160" height="28" as="geometry" />
        </mxCell>
        <mxCell id="_dKKWEHPCUcyKfsjPXB_-6" value="fecha_creacion" style="text;align=left;verticalAlign=top;spacingLeft=4;spacingRight=4;overflow=hidden;rotatable=0;points=[[0,0.5],[1,0.5]];portConstraint=eastwest;rounded=0;shadow=0;html=0;" parent="_dKKWEHPCUcyKfsjPXB_-0" vertex="1">
          <mxGeometry y="108" width="160" height="26" as="geometry" />
        </mxCell>
        <mxCell id="_dKKWEHPCUcyKfsjPXB_-14" value="marcas" style="swimlane;fontStyle=0;align=center;verticalAlign=top;childLayout=stackLayout;horizontal=1;startSize=26;horizontalStack=0;resizeParent=1;resizeLast=0;collapsible=1;marginBottom=0;rounded=0;shadow=0;strokeWidth=1;" parent="WIyWlLk6GJQsqaUBKTNV-1" vertex="1">
          <mxGeometry x="-400" y="-1090" width="160" height="150" as="geometry">
            <mxRectangle x="130" y="380" width="160" height="26" as="alternateBounds" />
          </mxGeometry>
        </mxCell>
        <mxCell id="_dKKWEHPCUcyKfsjPXB_-15" value="id_marca" style="text;align=left;verticalAlign=top;spacingLeft=4;spacingRight=4;overflow=hidden;rotatable=0;points=[[0,0.5],[1,0.5]];portConstraint=eastwest;" parent="_dKKWEHPCUcyKfsjPXB_-14" vertex="1">
          <mxGeometry y="26" width="160" height="26" as="geometry" />
        </mxCell>
        <mxCell id="_dKKWEHPCUcyKfsjPXB_-16" value="nombre_marca" style="text;align=left;verticalAlign=top;spacingLeft=4;spacingRight=4;overflow=hidden;rotatable=0;points=[[0,0.5],[1,0.5]];portConstraint=eastwest;rounded=0;shadow=0;html=0;" parent="_dKKWEHPCUcyKfsjPXB_-14" vertex="1">
          <mxGeometry y="52" width="160" height="28" as="geometry" />
        </mxCell>
        <mxCell id="_dKKWEHPCUcyKfsjPXB_-18" value="fecha_actualizacion" style="text;align=left;verticalAlign=top;spacingLeft=4;spacingRight=4;overflow=hidden;rotatable=0;points=[[0,0.5],[1,0.5]];portConstraint=eastwest;rounded=0;shadow=0;html=0;" parent="_dKKWEHPCUcyKfsjPXB_-14" vertex="1">
          <mxGeometry y="80" width="160" height="28" as="geometry" />
        </mxCell>
        <mxCell id="_dKKWEHPCUcyKfsjPXB_-19" value="fecha_creacion" style="text;align=left;verticalAlign=top;spacingLeft=4;spacingRight=4;overflow=hidden;rotatable=0;points=[[0,0.5],[1,0.5]];portConstraint=eastwest;rounded=0;shadow=0;html=0;" parent="_dKKWEHPCUcyKfsjPXB_-14" vertex="1">
          <mxGeometry y="108" width="160" height="26" as="geometry" />
        </mxCell>
        <mxCell id="_dKKWEHPCUcyKfsjPXB_-20" value="" style="endArrow=none;html=1;rounded=0;strokeColor=default;align=center;verticalAlign=middle;fontFamily=Helvetica;fontSize=11;fontColor=default;labelBackgroundColor=default;" parent="WIyWlLk6GJQsqaUBKTNV-1" source="_dKKWEHPCUcyKfsjPXB_-14" target="tGhq1vd1xCX6ENyTumZ_-94" edge="1">
          <mxGeometry relative="1" as="geometry">
            <mxPoint x="-160" y="-1178" as="sourcePoint" />
            <mxPoint x="-10" y="-1110" as="targetPoint" />
          </mxGeometry>
        </mxCell>
        <mxCell id="_dKKWEHPCUcyKfsjPXB_-21" value="1" style="resizable=0;html=1;whiteSpace=wrap;align=left;verticalAlign=bottom;fontFamily=Helvetica;fontSize=11;fontColor=default;labelBackgroundColor=default;" parent="_dKKWEHPCUcyKfsjPXB_-20" connectable="0" vertex="1">
          <mxGeometry x="-1" relative="1" as="geometry">
            <mxPoint x="10" y="-20" as="offset" />
          </mxGeometry>
        </mxCell>
        <mxCell id="_dKKWEHPCUcyKfsjPXB_-22" value="*" style="resizable=0;html=1;whiteSpace=wrap;align=center;verticalAlign=bottom;fontFamily=Helvetica;fontSize=16;fontColor=default;labelBackgroundColor=none;spacing=2;fontStyle=1;" parent="_dKKWEHPCUcyKfsjPXB_-20" connectable="0" vertex="1">
          <mxGeometry x="1" relative="1" as="geometry">
            <mxPoint x="-10" y="2" as="offset" />
          </mxGeometry>
        </mxCell>
        <mxCell id="_dKKWEHPCUcyKfsjPXB_-23" value="&amp;nbsp;pertence&amp;nbsp;" style="edgeLabel;html=1;align=center;verticalAlign=middle;resizable=0;points=[];" parent="_dKKWEHPCUcyKfsjPXB_-20" vertex="1" connectable="0">
          <mxGeometry x="0.2525" y="-4" relative="1" as="geometry">
            <mxPoint x="-5" y="2" as="offset" />
          </mxGeometry>
        </mxCell>
        <mxCell id="_dKKWEHPCUcyKfsjPXB_-26" value="modelos" style="swimlane;fontStyle=0;align=center;verticalAlign=top;childLayout=stackLayout;horizontal=1;startSize=26;horizontalStack=0;resizeParent=1;resizeLast=0;collapsible=1;marginBottom=0;rounded=0;shadow=0;strokeWidth=1;" parent="WIyWlLk6GJQsqaUBKTNV-1" vertex="1">
          <mxGeometry x="-260" y="-880" width="160" height="174" as="geometry">
            <mxRectangle x="130" y="380" width="160" height="26" as="alternateBounds" />
          </mxGeometry>
        </mxCell>
        <mxCell id="_dKKWEHPCUcyKfsjPXB_-27" value="id_modelo" style="text;align=left;verticalAlign=top;spacingLeft=4;spacingRight=4;overflow=hidden;rotatable=0;points=[[0,0.5],[1,0.5]];portConstraint=eastwest;" parent="_dKKWEHPCUcyKfsjPXB_-26" vertex="1">
          <mxGeometry y="26" width="160" height="26" as="geometry" />
        </mxCell>
        <mxCell id="_dKKWEHPCUcyKfsjPXB_-28" value="nombre_modelo" style="text;align=left;verticalAlign=top;spacingLeft=4;spacingRight=4;overflow=hidden;rotatable=0;points=[[0,0.5],[1,0.5]];portConstraint=eastwest;rounded=0;shadow=0;html=0;" parent="_dKKWEHPCUcyKfsjPXB_-26" vertex="1">
          <mxGeometry y="52" width="160" height="28" as="geometry" />
        </mxCell>
        <mxCell id="_dKKWEHPCUcyKfsjPXB_-29" value="fecha_actualizacion" style="text;align=left;verticalAlign=top;spacingLeft=4;spacingRight=4;overflow=hidden;rotatable=0;points=[[0,0.5],[1,0.5]];portConstraint=eastwest;rounded=0;shadow=0;html=0;" parent="_dKKWEHPCUcyKfsjPXB_-26" vertex="1">
          <mxGeometry y="80" width="160" height="28" as="geometry" />
        </mxCell>
        <mxCell id="_dKKWEHPCUcyKfsjPXB_-30" value="fecha_creacion" style="text;align=left;verticalAlign=top;spacingLeft=4;spacingRight=4;overflow=hidden;rotatable=0;points=[[0,0.5],[1,0.5]];portConstraint=eastwest;rounded=0;shadow=0;html=0;" parent="_dKKWEHPCUcyKfsjPXB_-26" vertex="1">
          <mxGeometry y="108" width="160" height="26" as="geometry" />
        </mxCell>
        <mxCell id="_dKKWEHPCUcyKfsjPXB_-31" value="diseños" style="swimlane;fontStyle=0;align=center;verticalAlign=top;childLayout=stackLayout;horizontal=1;startSize=26;horizontalStack=0;resizeParent=1;resizeLast=0;collapsible=1;marginBottom=0;rounded=0;shadow=0;strokeWidth=1;" parent="WIyWlLk6GJQsqaUBKTNV-1" vertex="1">
          <mxGeometry x="70" y="-820" width="160" height="174" as="geometry">
            <mxRectangle x="130" y="380" width="160" height="26" as="alternateBounds" />
          </mxGeometry>
        </mxCell>
        <mxCell id="_dKKWEHPCUcyKfsjPXB_-32" value="id_diseño" style="text;align=left;verticalAlign=top;spacingLeft=4;spacingRight=4;overflow=hidden;rotatable=0;points=[[0,0.5],[1,0.5]];portConstraint=eastwest;" parent="_dKKWEHPCUcyKfsjPXB_-31" vertex="1">
          <mxGeometry y="26" width="160" height="26" as="geometry" />
        </mxCell>
        <mxCell id="_dKKWEHPCUcyKfsjPXB_-33" value="nombre_diseño" style="text;align=left;verticalAlign=top;spacingLeft=4;spacingRight=4;overflow=hidden;rotatable=0;points=[[0,0.5],[1,0.5]];portConstraint=eastwest;rounded=0;shadow=0;html=0;" parent="_dKKWEHPCUcyKfsjPXB_-31" vertex="1">
          <mxGeometry y="52" width="160" height="28" as="geometry" />
        </mxCell>
        <mxCell id="_dKKWEHPCUcyKfsjPXB_-34" value="fecha_actualizacion" style="text;align=left;verticalAlign=top;spacingLeft=4;spacingRight=4;overflow=hidden;rotatable=0;points=[[0,0.5],[1,0.5]];portConstraint=eastwest;rounded=0;shadow=0;html=0;" parent="_dKKWEHPCUcyKfsjPXB_-31" vertex="1">
          <mxGeometry y="80" width="160" height="28" as="geometry" />
        </mxCell>
        <mxCell id="_dKKWEHPCUcyKfsjPXB_-35" value="fecha_creacion" style="text;align=left;verticalAlign=top;spacingLeft=4;spacingRight=4;overflow=hidden;rotatable=0;points=[[0,0.5],[1,0.5]];portConstraint=eastwest;rounded=0;shadow=0;html=0;" parent="_dKKWEHPCUcyKfsjPXB_-31" vertex="1">
          <mxGeometry y="108" width="160" height="26" as="geometry" />
        </mxCell>
        <mxCell id="_dKKWEHPCUcyKfsjPXB_-36" value="" style="endArrow=none;html=1;rounded=0;strokeColor=default;align=center;verticalAlign=middle;fontFamily=Helvetica;fontSize=11;fontColor=default;labelBackgroundColor=default;" parent="WIyWlLk6GJQsqaUBKTNV-1" source="_dKKWEHPCUcyKfsjPXB_-26" target="tGhq1vd1xCX6ENyTumZ_-94" edge="1">
          <mxGeometry relative="1" as="geometry">
            <mxPoint x="-90" y="-1030" as="sourcePoint" />
            <mxPoint x="10" y="-1070" as="targetPoint" />
          </mxGeometry>
        </mxCell>
        <mxCell id="_dKKWEHPCUcyKfsjPXB_-37" value="1" style="resizable=0;html=1;whiteSpace=wrap;align=left;verticalAlign=bottom;fontFamily=Helvetica;fontSize=11;fontColor=default;labelBackgroundColor=default;" parent="_dKKWEHPCUcyKfsjPXB_-36" connectable="0" vertex="1">
          <mxGeometry x="-1" relative="1" as="geometry">
            <mxPoint x="-24" y="-10" as="offset" />
          </mxGeometry>
        </mxCell>
        <mxCell id="_dKKWEHPCUcyKfsjPXB_-38" value="*" style="resizable=0;html=1;whiteSpace=wrap;align=center;verticalAlign=bottom;fontFamily=Helvetica;fontSize=16;fontColor=default;labelBackgroundColor=none;spacing=2;fontStyle=1;" parent="_dKKWEHPCUcyKfsjPXB_-36" connectable="0" vertex="1">
          <mxGeometry x="1" relative="1" as="geometry">
            <mxPoint x="-20" y="9" as="offset" />
          </mxGeometry>
        </mxCell>
        <mxCell id="_dKKWEHPCUcyKfsjPXB_-39" value="&amp;nbsp;pertence&amp;nbsp;" style="edgeLabel;html=1;align=center;verticalAlign=middle;resizable=0;points=[];" parent="_dKKWEHPCUcyKfsjPXB_-36" vertex="1" connectable="0">
          <mxGeometry x="0.2525" y="-4" relative="1" as="geometry">
            <mxPoint x="-20" y="12" as="offset" />
          </mxGeometry>
        </mxCell>
        <mxCell id="_dKKWEHPCUcyKfsjPXB_-40" value="" style="endArrow=none;html=1;rounded=0;strokeColor=default;align=center;verticalAlign=middle;fontFamily=Helvetica;fontSize=11;fontColor=default;labelBackgroundColor=default;" parent="WIyWlLk6GJQsqaUBKTNV-1" source="_dKKWEHPCUcyKfsjPXB_-31" target="tGhq1vd1xCX6ENyTumZ_-94" edge="1">
          <mxGeometry relative="1" as="geometry">
            <mxPoint x="-100" y="-1030" as="sourcePoint" />
            <mxPoint x="-10" y="-1080" as="targetPoint" />
          </mxGeometry>
        </mxCell>
        <mxCell id="_dKKWEHPCUcyKfsjPXB_-41" value="1" style="resizable=0;html=1;whiteSpace=wrap;align=left;verticalAlign=bottom;fontFamily=Helvetica;fontSize=11;fontColor=default;labelBackgroundColor=default;" parent="_dKKWEHPCUcyKfsjPXB_-40" connectable="0" vertex="1">
          <mxGeometry x="-1" relative="1" as="geometry">
            <mxPoint x="-30" y="-10" as="offset" />
          </mxGeometry>
        </mxCell>
        <mxCell id="_dKKWEHPCUcyKfsjPXB_-42" value="*" style="resizable=0;html=1;whiteSpace=wrap;align=center;verticalAlign=bottom;fontFamily=Helvetica;fontSize=16;fontColor=default;labelBackgroundColor=none;spacing=2;fontStyle=1;" parent="_dKKWEHPCUcyKfsjPXB_-40" connectable="0" vertex="1">
          <mxGeometry x="1" relative="1" as="geometry">
            <mxPoint x="-19" y="36" as="offset" />
          </mxGeometry>
        </mxCell>
        <mxCell id="_dKKWEHPCUcyKfsjPXB_-43" value="&amp;nbsp;pertence&amp;nbsp;" style="edgeLabel;html=1;align=center;verticalAlign=middle;resizable=0;points=[];" parent="_dKKWEHPCUcyKfsjPXB_-40" vertex="1" connectable="0">
          <mxGeometry x="0.2525" y="-4" relative="1" as="geometry">
            <mxPoint x="1" y="8" as="offset" />
          </mxGeometry>
        </mxCell>
        <mxCell id="_dKKWEHPCUcyKfsjPXB_-44" value="categorias" style="swimlane;fontStyle=0;align=center;verticalAlign=top;childLayout=stackLayout;horizontal=1;startSize=26;horizontalStack=0;resizeParent=1;resizeLast=0;collapsible=1;marginBottom=0;rounded=0;shadow=0;strokeWidth=1;" parent="WIyWlLk6GJQsqaUBKTNV-1" vertex="1">
          <mxGeometry x="-410" y="-1290" width="160" height="150" as="geometry">
            <mxRectangle x="130" y="380" width="160" height="26" as="alternateBounds" />
          </mxGeometry>
        </mxCell>
        <mxCell id="_dKKWEHPCUcyKfsjPXB_-45" value="id_categoria" style="text;align=left;verticalAlign=top;spacingLeft=4;spacingRight=4;overflow=hidden;rotatable=0;points=[[0,0.5],[1,0.5]];portConstraint=eastwest;" parent="_dKKWEHPCUcyKfsjPXB_-44" vertex="1">
          <mxGeometry y="26" width="160" height="26" as="geometry" />
        </mxCell>
        <mxCell id="_dKKWEHPCUcyKfsjPXB_-46" value="nombre_categoria" style="text;align=left;verticalAlign=top;spacingLeft=4;spacingRight=4;overflow=hidden;rotatable=0;points=[[0,0.5],[1,0.5]];portConstraint=eastwest;rounded=0;shadow=0;html=0;" parent="_dKKWEHPCUcyKfsjPXB_-44" vertex="1">
          <mxGeometry y="52" width="160" height="28" as="geometry" />
        </mxCell>
        <mxCell id="_dKKWEHPCUcyKfsjPXB_-47" value="fecha_actualizacion" style="text;align=left;verticalAlign=top;spacingLeft=4;spacingRight=4;overflow=hidden;rotatable=0;points=[[0,0.5],[1,0.5]];portConstraint=eastwest;rounded=0;shadow=0;html=0;" parent="_dKKWEHPCUcyKfsjPXB_-44" vertex="1">
          <mxGeometry y="80" width="160" height="28" as="geometry" />
        </mxCell>
        <mxCell id="_dKKWEHPCUcyKfsjPXB_-48" value="fecha_creacion" style="text;align=left;verticalAlign=top;spacingLeft=4;spacingRight=4;overflow=hidden;rotatable=0;points=[[0,0.5],[1,0.5]];portConstraint=eastwest;rounded=0;shadow=0;html=0;" parent="_dKKWEHPCUcyKfsjPXB_-44" vertex="1">
          <mxGeometry y="108" width="160" height="26" as="geometry" />
        </mxCell>
        <mxCell id="_dKKWEHPCUcyKfsjPXB_-49" value="" style="endArrow=none;html=1;rounded=0;strokeColor=default;align=center;verticalAlign=middle;fontFamily=Helvetica;fontSize=11;fontColor=default;labelBackgroundColor=default;" parent="WIyWlLk6GJQsqaUBKTNV-1" source="_dKKWEHPCUcyKfsjPXB_-44" target="tGhq1vd1xCX6ENyTumZ_-94" edge="1">
          <mxGeometry relative="1" as="geometry">
            <mxPoint x="-230" y="-1043" as="sourcePoint" />
            <mxPoint x="70" y="-1184" as="targetPoint" />
          </mxGeometry>
        </mxCell>
        <mxCell id="_dKKWEHPCUcyKfsjPXB_-50" value="1" style="resizable=0;html=1;whiteSpace=wrap;align=left;verticalAlign=bottom;fontFamily=Helvetica;fontSize=11;fontColor=default;labelBackgroundColor=default;" parent="_dKKWEHPCUcyKfsjPXB_-49" connectable="0" vertex="1">
          <mxGeometry x="-1" relative="1" as="geometry">
            <mxPoint x="10" y="-20" as="offset" />
          </mxGeometry>
        </mxCell>
        <mxCell id="_dKKWEHPCUcyKfsjPXB_-51" value="*" style="resizable=0;html=1;whiteSpace=wrap;align=center;verticalAlign=bottom;fontFamily=Helvetica;fontSize=16;fontColor=default;labelBackgroundColor=none;spacing=2;fontStyle=1;" parent="_dKKWEHPCUcyKfsjPXB_-49" connectable="0" vertex="1">
          <mxGeometry x="1" relative="1" as="geometry">
            <mxPoint x="-10" y="2" as="offset" />
          </mxGeometry>
        </mxCell>
        <mxCell id="_dKKWEHPCUcyKfsjPXB_-52" value="&amp;nbsp;pertence&amp;nbsp;" style="edgeLabel;html=1;align=center;verticalAlign=middle;resizable=0;points=[];" parent="_dKKWEHPCUcyKfsjPXB_-49" vertex="1" connectable="0">
          <mxGeometry x="0.2525" y="-4" relative="1" as="geometry">
            <mxPoint x="-5" y="2" as="offset" />
          </mxGeometry>
        </mxCell>
        <mxCell id="_dKKWEHPCUcyKfsjPXB_-67" value="" style="endArrow=none;html=1;rounded=0;strokeColor=default;align=center;verticalAlign=middle;fontFamily=Helvetica;fontSize=11;fontColor=default;labelBackgroundColor=default;" parent="WIyWlLk6GJQsqaUBKTNV-1" source="_dKKWEHPCUcyKfsjPXB_-0" target="zkfFHV4jXpPFQw0GAbJ--6" edge="1">
          <mxGeometry relative="1" as="geometry">
            <mxPoint x="100" y="-1649" as="sourcePoint" />
            <mxPoint x="-10" y="-1644" as="targetPoint" />
          </mxGeometry>
        </mxCell>
        <mxCell id="_dKKWEHPCUcyKfsjPXB_-68" value="1" style="resizable=0;html=1;whiteSpace=wrap;align=left;verticalAlign=bottom;fontFamily=Helvetica;fontSize=11;fontColor=default;labelBackgroundColor=default;" parent="_dKKWEHPCUcyKfsjPXB_-67" connectable="0" vertex="1">
          <mxGeometry x="-1" relative="1" as="geometry">
            <mxPoint x="10" y="-4" as="offset" />
          </mxGeometry>
        </mxCell>
        <mxCell id="_dKKWEHPCUcyKfsjPXB_-69" value="*" style="resizable=0;html=1;whiteSpace=wrap;align=center;verticalAlign=bottom;fontFamily=Helvetica;fontSize=16;fontColor=default;labelBackgroundColor=none;spacing=2;fontStyle=1" parent="_dKKWEHPCUcyKfsjPXB_-67" connectable="0" vertex="1">
          <mxGeometry x="1" relative="1" as="geometry">
            <mxPoint x="-10" y="-27" as="offset" />
          </mxGeometry>
        </mxCell>
        <mxCell id="_dKKWEHPCUcyKfsjPXB_-70" value="tiene" style="edgeLabel;html=1;align=center;verticalAlign=middle;resizable=0;points=[];" parent="_dKKWEHPCUcyKfsjPXB_-67" vertex="1" connectable="0">
          <mxGeometry x="0.2182" relative="1" as="geometry">
            <mxPoint x="-13" y="-15" as="offset" />
          </mxGeometry>
        </mxCell>
      </root>
    </mxGraphModel>
  </diagram>
</mxfile>
